<svg xmlns="http://www.w3.org/2000/svg" width="219" height="44.054" viewBox="0 0 219 44.054">
  <g id="ay" transform="translate(0 -0.191)">
    <path id="Trazado_1281" data-name="Trazado 1281" d="M115.528,10a4.064,4.064,0,0,0-1.315-2.066,4.278,4.278,0,0,0-4.515,0A4.064,4.064,0,0,0,108.383,10a15.573,15.573,0,0,0-.613,3.643q-.169,2.706-.154,5.419,0,3.2.154,5.442a15.373,15.373,0,0,0,.613,3.643,4.064,4.064,0,0,0,1.315,2.044,4.282,4.282,0,0,0,4.515,0,4.053,4.053,0,0,0,1.315-2.043,15.373,15.373,0,0,0,.613-3.643q.154-2.244.153-5.442t-.153-5.419A15.65,15.65,0,0,0,115.528,10" transform="translate(50.653 3.34)" fill="#fff" fill-rule="evenodd"/>
    <g id="Grupo_1711" data-name="Grupo 1711" transform="translate(125.569 0.191)">
      <path id="Trazado_1282" data-name="Trazado 1282" d="M81.336,20.072a7.289,7.289,0,1,1,7.192-7.289A7.241,7.241,0,0,1,81.336,20.072Zm-11.242,8.5a12.988,12.988,0,0,1-.832,5A8,8,0,0,1,67.026,36.7a7.531,7.531,0,0,1-3.2,1.555,17.1,17.1,0,0,1-3.725.4,19.177,19.177,0,0,1-3.725-.356,7.5,7.5,0,0,1-3.2-1.444,7.385,7.385,0,0,1-2.235-3.088,13.652,13.652,0,0,1-.832-5.2V6.447H56.42V28.571a14.658,14.658,0,0,0,.153,2.2,5.029,5.029,0,0,0,.571,1.732,3.064,3.064,0,0,0,1.138,1.154,4.179,4.179,0,0,0,3.661,0A3.121,3.121,0,0,0,63.06,32.5a5.059,5.059,0,0,0,.569-1.732,14.467,14.467,0,0,0,.153-2.2V6.447h6.312V28.571Zm-22.55.4a14.817,14.817,0,0,1-1.446,5.2A7.743,7.743,0,0,1,42.878,37.5a11.772,11.772,0,0,1-5.655,1.156A11.766,11.766,0,0,1,31.569,37.5a7.742,7.742,0,0,1-3.221-3.331,14.826,14.826,0,0,1-1.447-5.2,61.952,61.952,0,0,1-.328-6.664,62.1,62.1,0,0,1,.328-6.642,14.892,14.892,0,0,1,1.447-5.221,8.162,8.162,0,0,1,3.221-3.4,11.232,11.232,0,0,1,5.653-1.222,11.241,11.241,0,0,1,5.653,1.221,8.165,8.165,0,0,1,3.222,3.4,14.853,14.853,0,0,1,1.446,5.219,61.716,61.716,0,0,1,.329,6.642,61.884,61.884,0,0,1-.329,6.662ZM18.867,38.166H12.556V25.683L4.449,6.446h7.1l4.118,12.263h.088L20.138,6.447h6.839L18.867,25.684V38.166ZM.185,44.151H93.616V.1H.185V44.154Z" transform="translate(-0.185 -0.1)" fill="#fff" fill-rule="evenodd"/>
    </g>
    <path id="Trazado_1283" data-name="Trazado 1283" d="M204.6,9.962,203.047,8.39l2.2-2.233a4.919,4.919,0,0,0-2.674-.788A5.053,5.053,0,1,0,206.8,7.728ZM62.414,10.9A4.074,4.074,0,0,0,61.1,8.832a4.278,4.278,0,0,0-4.515,0A4.064,4.064,0,0,0,55.269,10.9a15.573,15.573,0,0,0-.613,3.643q-.169,2.706-.154,5.42,0,3.2.154,5.442a15.374,15.374,0,0,0,.613,3.643,4.064,4.064,0,0,0,1.315,2.044,4.282,4.282,0,0,0,4.515,0,4.053,4.053,0,0,0,1.315-2.043,15.374,15.374,0,0,0,.613-3.643q.154-2.244.153-5.442t-.153-5.419a15.651,15.651,0,0,0-.613-3.643M38.715,22.56a3.614,3.614,0,0,0-1.512-.778,7.852,7.852,0,0,0-1.93-.221H32.558v9.551h2.455a6.113,6.113,0,0,0,3.681-1.022q1.4-1.021,1.4-3.777a6.074,6.074,0,0,0-.372-2.287,3.846,3.846,0,0,0-1.007-1.466m-.527-6.4a3.878,3.878,0,0,0,1.206-3.221,4.022,4.022,0,0,0-1.1-3.2,5.285,5.285,0,0,0-3.463-.932h-2.28v8.308h1.8a6.178,6.178,0,0,0,3.834-.956M11.828,9.61,8.8,23.87h6.136L11.915,9.61Z" transform="translate(4.143 2.437)" fill="#fff" fill-rule="evenodd"/>
    <g id="Grupo_1712" data-name="Grupo 1712" transform="translate(0 0.191)">
      <path id="Trazado_1284" data-name="Trazado 1284" d="M117.615,11.689h-6.837V38.166h-6.311V11.689H97.629V6.447h19.987v5.242Zm-21.7,16.883a12.958,12.958,0,0,1-.834,5A7.966,7.966,0,0,1,92.847,36.7a7.534,7.534,0,0,1-3.2,1.555,17.1,17.1,0,0,1-3.725.4A19.166,19.166,0,0,1,82.2,38.3,7.511,7.511,0,0,1,79,36.857a7.372,7.372,0,0,1-2.235-3.088,13.649,13.649,0,0,1-.834-5.2V6.447h6.312V28.571a14.466,14.466,0,0,0,.153,2.2,5,5,0,0,0,.571,1.732A3.064,3.064,0,0,0,84.1,33.657a4.179,4.179,0,0,0,3.661,0A3.132,3.132,0,0,0,88.882,32.5a5.059,5.059,0,0,0,.569-1.732,14.467,14.467,0,0,0,.153-2.2V6.447h6.312V28.571Zm-22.61.4a14.848,14.848,0,0,1-1.447,5.2A7.74,7.74,0,0,1,68.638,37.5a11.766,11.766,0,0,1-5.653,1.156A11.772,11.772,0,0,1,57.33,37.5,7.742,7.742,0,0,1,54.11,34.17a14.826,14.826,0,0,1-1.446-5.2,61.843,61.843,0,0,1-.329-6.664,62.057,62.057,0,0,1,.329-6.642,14.861,14.861,0,0,1,1.446-5.221,8.162,8.162,0,0,1,3.221-3.4,11.235,11.235,0,0,1,5.655-1.221,11.233,11.233,0,0,1,5.653,1.221,8.162,8.162,0,0,1,3.221,3.4,14.861,14.861,0,0,1,1.447,5.221,62.1,62.1,0,0,1,.328,6.642,61.9,61.9,0,0,1-.328,6.662ZM50.331,32.437a7.267,7.267,0,0,1-1.644,2.955,8.248,8.248,0,0,1-3.024,2.021,12.372,12.372,0,0,1-4.624.754H30.389V6.447H40.951a15.039,15.039,0,0,1,3.572.4A7.264,7.264,0,0,1,47.35,8.18a6.129,6.129,0,0,1,1.841,2.488,9.815,9.815,0,0,1,.657,3.819,8,8,0,0,1-1.184,4.421,5.945,5.945,0,0,1-3.55,2.51v.088a6.188,6.188,0,0,1,4.165,2.265,7.927,7.927,0,0,1,1.532,5.109,12.913,12.913,0,0,1-.481,3.555Zm-28.708,5.73-1.446-6.706H11.851L10.4,38.167H3.83l8.284-31.72h7.8L28.2,38.166H21.625ZM0,44.151H123.4V.1H0V44.154Z" transform="translate(0 -0.1)" fill="#fff" fill-rule="evenodd"/>
    </g>
  </g>
</svg>
