<svg xmlns="http://www.w3.org/2000/svg" xmlns:xlink="http://www.w3.org/1999/xlink" width="217.602" height="46.257" viewBox="0 0 217.602 46.257">
  <defs>
    <style>
      .cls-1 {
        fill: #fff;
      }

      .cls-2 {
        fill: url(#linear-gradient);
      }
    </style>
    <linearGradient id="linear-gradient" x1="0.504" y1="1.003" x2="0.504" y2="-0.001" gradientUnits="objectBoundingBox">
      <stop offset="0" stop-color="#e5ecec"/>
      <stop offset="1" stop-color="#e9b479"/>
    </linearGradient>
  </defs>
  <g id="logo_1_" data-name="logo (1)" transform="translate(-7 -5.4)">
    <path id="Trazado_899" data-name="Trazado 899" class="cls-1" d="M65.514,9.583A14.272,14.272,0,0,0,60.3,6.977,21.318,21.318,0,0,0,53.625,6H37.5V50.3h3.257V33.852h11.89a29.978,29.978,0,0,0,6.678-.814,19.31,19.31,0,0,0,5.538-2.606,12.283,12.283,0,0,0,3.746-4.4,12.426,12.426,0,0,0,1.466-6.189v-.163a12.743,12.743,0,0,0-1.14-5.7A11.485,11.485,0,0,0,65.514,9.583Zm1.3,10.261a10.929,10.929,0,0,1-.977,4.56,10.6,10.6,0,0,1-7.166,5.538,20.041,20.041,0,0,1-5.7.814H40.757V9.095H53.3a18.711,18.711,0,0,1,5.375.651,11.508,11.508,0,0,1,4.235,2.117,8.313,8.313,0,0,1,2.769,3.42,7.911,7.911,0,0,1,1.14,4.56Z" transform="translate(19.177 0.377)"/>
    <path id="Trazado_900" data-name="Trazado 900" class="cls-1" d="M89.814,9.583A14.272,14.272,0,0,0,84.6,6.977,21.318,21.318,0,0,0,77.925,6H61.8V50.3h3.257V33.852h11.89a29.978,29.978,0,0,0,6.678-.814,19.31,19.31,0,0,0,5.538-2.606,12.284,12.284,0,0,0,3.746-4.4,12.426,12.426,0,0,0,1.466-6.189v-.163a12.743,12.743,0,0,0-1.14-5.7A11.485,11.485,0,0,0,89.814,9.583Zm1.3,10.261a10.929,10.929,0,0,1-.977,4.56,10.6,10.6,0,0,1-7.166,5.538,20.041,20.041,0,0,1-5.7.814H65.058V9.095H77.6a18.711,18.711,0,0,1,5.375.651,11.508,11.508,0,0,1,4.235,2.117,8.313,8.313,0,0,1,2.769,3.42,7.912,7.912,0,0,1,1.14,4.56Z" transform="translate(34.455 0.377)"/>
    <rect id="Rectángulo_324" data-name="Rectángulo 324" class="cls-1" width="3.257" height="44.302" transform="translate(136.648 6.377)"/>
    <path id="Trazado_901" data-name="Trazado 901" class="cls-1" d="M123.995,46.77a19.439,19.439,0,0,1-8.307,1.792,16.1,16.1,0,0,1-7.329-1.629A16.935,16.935,0,0,1,102.5,42.7a21.156,21.156,0,0,1-5.375-14.17v-.163A21.156,21.156,0,0,1,102.5,14.2a16.935,16.935,0,0,1,5.863-4.235,18.408,18.408,0,0,1,7.329-1.466,20.6,20.6,0,0,1,4.56.489,21.976,21.976,0,0,1,3.909,1.3,19.507,19.507,0,0,1,3.42,2.117c.977.814,2.117,1.629,3.095,2.606l2.28-2.443c-1.14-.977-2.28-1.954-3.583-2.932a22.428,22.428,0,0,0-3.909-2.28,19.933,19.933,0,0,0-4.4-1.466,27.455,27.455,0,0,0-5.375-.489,21.741,21.741,0,0,0-8.8,1.792,19.415,19.415,0,0,0-7,4.886,21.379,21.379,0,0,0-4.56,7.329A22.813,22.813,0,0,0,93.7,28.2v.163a23.637,23.637,0,0,0,1.629,8.958,21.708,21.708,0,0,0,11.564,12.053,22.937,22.937,0,0,0,8.8,1.792,27.455,27.455,0,0,0,5.375-.489,21.687,21.687,0,0,0,4.56-1.629,15.859,15.859,0,0,0,3.909-2.443,32.568,32.568,0,0,0,3.583-3.095l-2.28-2.117A20.766,20.766,0,0,1,123.995,46.77Z" transform="translate(54.512)"/>
    <path id="Trazado_902" data-name="Trazado 902" class="cls-1" d="M149.592,31.271c-2.28-1.954-6.026-3.42-11.075-4.4A40.6,40.6,0,0,1,132,25.082a14.511,14.511,0,0,1-3.909-2.117,5.811,5.811,0,0,1-1.954-2.606,9.8,9.8,0,0,1-.489-3.257v-.163a7.414,7.414,0,0,1,.814-3.257,8.287,8.287,0,0,1,2.117-2.606A13.4,13.4,0,0,1,132,9.283a12.482,12.482,0,0,1,4.4-.651,18.863,18.863,0,0,1,6.841,1.14,22.377,22.377,0,0,1,6.352,3.909l2.117-2.606A30.273,30.273,0,0,0,144.868,7a21.2,21.2,0,0,0-8.307-1.3,20.941,20.941,0,0,0-5.7.814,17.3,17.3,0,0,0-4.56,2.443,9.417,9.417,0,0,0-2.932,3.746,11.094,11.094,0,0,0-1.14,4.56v.163a13.372,13.372,0,0,0,.814,4.56,8.742,8.742,0,0,0,2.606,3.42,18.058,18.058,0,0,0,4.723,2.606,50.151,50.151,0,0,0,6.841,1.954A54.27,54.27,0,0,1,143.4,31.6a14.511,14.511,0,0,1,3.909,2.117,5.811,5.811,0,0,1,1.954,2.606,9.483,9.483,0,0,1,.489,3.095v.163a8.876,8.876,0,0,1-.814,3.583,7.449,7.449,0,0,1-2.28,2.769,8.27,8.27,0,0,1-3.583,1.792,14.052,14.052,0,0,1-4.56.651,20.6,20.6,0,0,1-4.56-.489,22.316,22.316,0,0,1-3.909-1.14A20.645,20.645,0,0,1,126.3,44.79a20.175,20.175,0,0,1-3.583-2.932L120.6,44.3a28.963,28.963,0,0,0,8.307,5.375,25.266,25.266,0,0,0,9.61,1.792,22.167,22.167,0,0,0,5.863-.814,17.3,17.3,0,0,0,4.56-2.443,10.659,10.659,0,0,0,3.095-3.909,9.837,9.837,0,0,0,1.14-4.886v-.163C153.012,35.669,151.872,33.063,149.592,31.271Z" transform="translate(71.425 0.189)"/>
    <path id="Trazado_903" data-name="Trazado 903" class="cls-1" d="M27.685,5.8,7,50.428h3.42L29.151,9.546,47.881,50.428h3.583L30.78,5.8Z" transform="translate(0 0.251)"/>
    <path id="Trazado_904" data-name="Trazado 904" class="cls-2" d="M24.561,19.5,14.3,41.977H34.822Z" transform="translate(4.59 8.865)"/>
  </g>
</svg>
