<svg id="Capa_1" data-name="Capa 1" xmlns="http://www.w3.org/2000/svg" viewBox="0 0 512 250"><title>Gerlent_logoMesa de trabajo 9</title><path d="M255.32,235.92a12.37,12.37,0,0,1-5-5.27,17.39,17.39,0,0,1-1.73-8,15.77,15.77,0,0,1,1.92-7.87,13.3,13.3,0,0,1,5.35-5.27,16.13,16.13,0,0,1,7.86-1.86,20.68,20.68,0,0,1,4.34.45,14.77,14.77,0,0,1,3.64,1.24l-.58,5a17.59,17.59,0,0,0-7.4-1.65q-4.63,0-7,2.71a10.47,10.47,0,0,0-2.36,7.13,11,11,0,0,0,2.32,7.34,8.28,8.28,0,0,0,6.7,2.75,19.3,19.3,0,0,0,4-.46v-5.17h-4v-4.38h9.26v12.9a15.15,15.15,0,0,1-4.11,1.57,21.94,21.94,0,0,1-5.36.62A15.64,15.64,0,0,1,255.32,235.92Z" style="fill:#fff"/><path d="M281,236.15a9.51,9.51,0,0,1-3.8-3.93,11.81,11.81,0,0,1-1.26-5.47,11.57,11.57,0,0,1,1.2-5.3,9.33,9.33,0,0,1,3.47-3.82A10,10,0,0,1,286,216.2a9.37,9.37,0,0,1,4.9,1.2,7.7,7.7,0,0,1,3,3.23,9.93,9.93,0,0,1,1,4.54,13.91,13.91,0,0,1-.33,2.82H281.26a6.07,6.07,0,0,0,2.15,4.07,6.65,6.65,0,0,0,4.17,1.34,11.93,11.93,0,0,0,6.21-1.69l.25,4.34a13.08,13.08,0,0,1-3.08,1.13,16,16,0,0,1-3.83.44A12.08,12.08,0,0,1,281,236.15Zm8.74-11.64a4.74,4.74,0,0,0-.9-2.85,3.27,3.27,0,0,0-2.82-1.24,4.26,4.26,0,0,0-3.06,1.11,5.83,5.83,0,0,0-1.57,3Z" style="fill:#fff"/><path d="M298.87,216.53h4.8l.12,2.19a8.79,8.79,0,0,1,2.34-1.82,6.16,6.16,0,0,1,3-.78,4.94,4.94,0,0,1,.9.08l-.37,5.05a6.82,6.82,0,0,0-1.77-.21,4.76,4.76,0,0,0-2.36.6,3.63,3.63,0,0,0-1.53,1.47V237.2h-5.13Z" style="fill:#fff"/><path d="M342.26,218.7a10.94,10.94,0,0,1,2,7V237.2h-5.13V226.08a7.91,7.91,0,0,0-.91-4.3,3.3,3.3,0,0,0-3-1.36,3.57,3.57,0,0,0-3.06,1.38,6.45,6.45,0,0,0-1,3.91V237.2H326V226.08a7.69,7.69,0,0,0-1-4.3,3.44,3.44,0,0,0-3-1.36,5.08,5.08,0,0,0-4,1.78v15h-5.13V216.53h4.38l.17,1.66a10.27,10.27,0,0,1,6.07-2,6.67,6.67,0,0,1,5.92,2.86,6.82,6.82,0,0,1,2.81-2.11,9.6,9.6,0,0,1,3.84-.75C338.88,216.2,340.93,217,342.26,218.7Z" style="fill:#fff"/><path d="M349.46,235.94a6,6,0,0,1-1.72-4.52,5.35,5.35,0,0,1,1.95-4.32,11.46,11.46,0,0,1,4.59-2.32,23.42,23.42,0,0,1,5.08-.76,3.67,3.67,0,0,0-.93-2.61,4.06,4.06,0,0,0-2.79-.78A9.62,9.62,0,0,0,353,221a18.59,18.59,0,0,0-3,1.2l-.46-4.18a17.22,17.22,0,0,1,7.53-1.82,7.38,7.38,0,0,1,5.56,2q1.92,2,1.92,6.32v5.58a13.05,13.05,0,0,0,.14,2.26,1.22,1.22,0,0,0,.5.87,2.78,2.78,0,0,0,1.18.18H367l-.46,4.22h-1.86a5.89,5.89,0,0,1-2.85-.64,4.56,4.56,0,0,1-1.78-1.76,6.68,6.68,0,0,1-2.71,1.76,10.39,10.39,0,0,1-3.61.64A5.87,5.87,0,0,1,349.46,235.94Zm8.2-2.64a5.21,5.21,0,0,0,1.74-1.1v-4.71a11,11,0,0,0-4.38,1.07,2.92,2.92,0,0,0-1.9,2.65,2.43,2.43,0,0,0,.66,1.88,3.07,3.07,0,0,0,2.11.6A4.9,4.9,0,0,0,357.66,233.3Z" style="fill:#fff"/><path d="M386.52,218.77a10.93,10.93,0,0,1,2,6.9V237.2h-5.13V226.08a7.52,7.52,0,0,0-1-4.28,3.55,3.55,0,0,0-3.12-1.38,4.89,4.89,0,0,0-3.89,1.78v15h-5.13V216.53h4.8l.08,1.45a9.72,9.72,0,0,1,5.54-1.78A6.91,6.91,0,0,1,386.52,218.77Z" style="fill:#fff"/><path d="M409.63,213.39h-8.18v-5.13h21.66v5.13h-8.18V237.2h-5.3Z" style="fill:#fff"/><path d="M424.54,235.94a6,6,0,0,1-1.72-4.52,5.37,5.37,0,0,1,1.94-4.32,11.59,11.59,0,0,1,4.59-2.32,23.6,23.6,0,0,1,5.09-.76,3.72,3.72,0,0,0-.93-2.61,4.08,4.08,0,0,0-2.79-.78,9.62,9.62,0,0,0-2.67.37,19,19,0,0,0-3,1.2L424.6,218a17.18,17.18,0,0,1,7.52-1.82,7.39,7.39,0,0,1,5.57,2q1.92,2,1.92,6.32v5.58a13.05,13.05,0,0,0,.14,2.26,1.22,1.22,0,0,0,.5.87,2.75,2.75,0,0,0,1.18.18h.66l-.46,4.22h-1.86a5.89,5.89,0,0,1-2.85-.64,4.56,4.56,0,0,1-1.78-1.76,6.68,6.68,0,0,1-2.71,1.76,10.39,10.39,0,0,1-3.61.64A5.87,5.87,0,0,1,424.54,235.94Zm8.2-2.64a5.42,5.42,0,0,0,1.74-1.1v-4.71a10.91,10.91,0,0,0-4.38,1.07,2.92,2.92,0,0,0-1.9,2.65,2.43,2.43,0,0,0,.66,1.88,3.07,3.07,0,0,0,2.11.6A4.9,4.9,0,0,0,432.74,233.3Z" style="fill:#fff"/><path d="M446.68,236.11a5.69,5.69,0,0,1-1.33-3.91v-26h5.13v23.89a9.7,9.7,0,0,0,.19,2.34,1.06,1.06,0,0,0,.66.83,6.65,6.65,0,0,0,1.63.14l-.46,4.22h-1.86A5,5,0,0,1,446.68,236.11Z" style="fill:#fff"/><path d="M460.26,236.15a9.47,9.47,0,0,1-3.81-3.93,11.81,11.81,0,0,1-1.26-5.47,11.69,11.69,0,0,1,1.2-5.3,9.4,9.4,0,0,1,3.47-3.82,10,10,0,0,1,5.42-1.43,9.39,9.39,0,0,1,4.9,1.2,7.76,7.76,0,0,1,3,3.23,10.06,10.06,0,0,1,1,4.54,13.91,13.91,0,0,1-.33,2.82H460.52a6.11,6.11,0,0,0,2.15,4.07,6.66,6.66,0,0,0,4.18,1.34,11.92,11.92,0,0,0,6.2-1.69l.25,4.34a12.92,12.92,0,0,1-3.08,1.13,15.89,15.89,0,0,1-3.82.44A12.06,12.06,0,0,1,460.26,236.15ZM469,224.51a4.68,4.68,0,0,0-.91-2.85,3.25,3.25,0,0,0-2.81-1.24,4.23,4.23,0,0,0-3.06,1.11,5.75,5.75,0,0,0-1.57,3Z" style="fill:#fff"/><path d="M494.39,218.77a11,11,0,0,1,2,6.9V237.2h-5.12V226.08a7.52,7.52,0,0,0-1-4.28,3.55,3.55,0,0,0-3.12-1.38,4.9,4.9,0,0,0-3.89,1.78v15h-5.12V216.53h4.79L483,218a9.68,9.68,0,0,1,5.54-1.78A6.94,6.94,0,0,1,494.39,218.77Z" style="fill:#fff"/><path d="M503.73,236a5.58,5.58,0,0,1-1.41-3.83V220.75h-2.93l.45-4.22h2.48V212l5.13-.53v5.08H512v4.22h-4.55v9.34a9.16,9.16,0,0,0,.19,2.3,1.13,1.13,0,0,0,.78.83,8.77,8.77,0,0,0,2.17.18H512l-.46,4.22h-3.68A5.22,5.22,0,0,1,503.73,236Z" style="fill:#fff"/><path d="M95.09,166.42a41.45,41.45,0,0,1-16.85-17.68Q72.41,137.3,72.41,122q0-15,6.45-26.42a44.7,44.7,0,0,1,18-17.69,54.44,54.44,0,0,1,26.36-6.24,68.65,68.65,0,0,1,14.56,1.53A49.17,49.17,0,0,1,150,77.37L148,94.29a58.83,58.83,0,0,0-24.83-5.55q-15.54,0-23.44,9.09t-7.91,23.93q0,15.39,7.77,24.62t22.47,9.22a66,66,0,0,0,13.32-1.52V136.74H122.07V122h31.07v43.28a51.5,51.5,0,0,1-13.8,5.27,74.32,74.32,0,0,1-18,2.09Q106.11,172.67,95.09,166.42Z" style="fill:#fff"/><path d="M181.23,167.19A31.83,31.83,0,0,1,168.47,154a39.7,39.7,0,0,1-4.23-18.38,39.21,39.21,0,0,1,4-17.76A31.55,31.55,0,0,1,179.91,105q7.64-4.79,18.18-4.78,9.71,0,16.43,4a25.92,25.92,0,0,1,10.13,10.82,33.59,33.59,0,0,1,3.4,15.26,46.27,46.27,0,0,1-1.11,9.43H182.13q1.4,9.15,7.22,13.66a22.17,22.17,0,0,0,14,4.51,39.94,39.94,0,0,0,20.81-5.69l.83,14.57a45.12,45.12,0,0,1-10.34,3.81,53.43,53.43,0,0,1-12.83,1.46Q189.77,172.11,181.23,167.19Zm29.34-39.05a15.77,15.77,0,0,0-3-9.57q-3.06-4.17-9.43-4.17a14.16,14.16,0,0,0-10.27,3.75,19.27,19.27,0,0,0-5.27,10Z" style="fill:#fff"/><path d="M241.23,101.36h16.09l.42,7.36a28.82,28.82,0,0,1,7.83-6.11A20.62,20.62,0,0,1,275.63,100a15.15,15.15,0,0,1,3.05.28l-1.25,16.92a23.52,23.52,0,0,0-6-.69,16,16,0,0,0-7.91,2,12.29,12.29,0,0,0-5.13,4.92v47.3h-17.2Z" style="fill:#fff"/><path d="M292.83,167.05q-4.44-5.07-4.44-13.11V66.69h17.2v80.17a34.15,34.15,0,0,0,.62,7.84,3.57,3.57,0,0,0,2.22,2.78,21.52,21.52,0,0,0,5.48.48l-1.52,14.15h-6.25Q297.28,172.11,292.83,167.05Z" style="fill:#fff"/><path d="M338.4,167.19A31.86,31.86,0,0,1,325.63,154a39.7,39.7,0,0,1-4.23-18.38,39.09,39.09,0,0,1,4-17.76A31.48,31.48,0,0,1,337.08,105q7.62-4.79,18.17-4.78,9.71,0,16.44,4a25.9,25.9,0,0,1,10.12,10.82,33.59,33.59,0,0,1,3.4,15.26,46.27,46.27,0,0,1-1.11,9.43H339.3q1.38,9.15,7.21,13.66a22.17,22.17,0,0,0,14,4.51,39.94,39.94,0,0,0,20.81-5.69l.83,14.57a45,45,0,0,1-10.33,3.81A53.49,53.49,0,0,1,359,172.11Q346.92,172.11,338.4,167.19Zm29.34-39.05a15.71,15.71,0,0,0-3.06-9.57q-3-4.17-9.43-4.17c-4.25,0-7.68,1.25-10.26,3.75a19.35,19.35,0,0,0-5.28,10Z" style="fill:#fff"/><path d="M452.91,108.86q6.66,8.6,6.66,23.16v38.7h-17.2V133.41q0-9.7-3.26-14.36t-10.48-4.65a16.44,16.44,0,0,0-13,6v50.35h-17.2V101.36h16.09l.28,4.86a32.37,32.37,0,0,1,18.59-6Q446.25,100.26,452.91,108.86Z" style="fill:#fff"/><path d="M484.26,166.77a18.7,18.7,0,0,1-4.72-12.83V115.51h-9.85l1.53-14.15h8.32V86.11l17.2-1.81v17.06H512v14.15H496.74v31.35a32.21,32.21,0,0,0,.62,7.7,3.83,3.83,0,0,0,2.64,2.78,28.71,28.71,0,0,0,7.28.62H512l-1.53,14.15H498.13Q489,172.11,484.26,166.77Z" style="fill:#fff"/><path d="M201.82,206.2A112,112,0,1,1,220.2,66.4h14.73a124.85,124.85,0,1,0-15.49,139.8Z" style="fill:#fff"/></svg>