<svg xmlns="http://www.w3.org/2000/svg" width="230" height="111.998" viewBox="0 0 230 111.998">
  <defs>
    <style>
      .cls-1 {
        fill: #fff;
      }
    </style>
  </defs>
  <g id="Grupo_578" data-name="Grupo 578" transform="translate(-1495.5 -86.2)">
    <g id="Grupo_117" data-name="Grupo 117" transform="translate(1618.757 178.38)">
      <path id="Trazado_346" data-name="Trazado 346" class="cls-1" d="M1580.6,160.811a4.982,4.982,0,0,1-2.252-2.4,9.072,9.072,0,0,1-.751-3.6,7.132,7.132,0,0,1,.9-3.6,6.156,6.156,0,0,1,2.4-2.4,6.974,6.974,0,0,1,3.453-.9,8.561,8.561,0,0,1,1.952.15,5.376,5.376,0,0,1,1.651.6l-.3,2.252a8.784,8.784,0,0,0-3.3-.751,4.3,4.3,0,0,0-3.153,1.2,4.461,4.461,0,0,0-1.051,3.153,4.852,4.852,0,0,0,1.051,3.3,3.481,3.481,0,0,0,3,1.2,7.932,7.932,0,0,0,1.8-.15v-2.252h-1.8v-1.952h4.2v5.855a10.894,10.894,0,0,1-1.8.751,11.669,11.669,0,0,1-2.4.3A5.389,5.389,0,0,1,1580.6,160.811Z" transform="translate(-1577.6 -147.45)"/>
      <path id="Trazado_347" data-name="Trazado 347" class="cls-1" d="M1586.7,161.112a2.393,2.393,0,0,1-.6-1.8V147.6h2.252v10.659c0,.45,0,.9.15,1.051a.323.323,0,0,0,.3.3h.751l-.15,1.952h-.9Q1587.151,161.787,1586.7,161.112Z" transform="translate(-1573.339 -147.6)"/>
      <path id="Trazado_348" data-name="Trazado 348" class="cls-1" d="M1591.252,159.608a4.772,4.772,0,0,1-1.651-1.8,5.1,5.1,0,0,1,0-4.8,4.774,4.774,0,0,1,1.651-1.8,5.723,5.723,0,0,1,5.1,0,4.772,4.772,0,0,1,1.651,1.8,5.1,5.1,0,0,1,0,4.8,4.771,4.771,0,0,1-1.651,1.8,5.723,5.723,0,0,1-5.1,0Zm4.354-2.1a3.176,3.176,0,0,0,.6-2.1,2.934,2.934,0,0,0-.6-2.1,2.021,2.021,0,0,0-1.8-.751,2.486,2.486,0,0,0-1.8.751,3.176,3.176,0,0,0-.6,2.1,2.934,2.934,0,0,0,.6,2.1,2.537,2.537,0,0,0,3.6,0Z" transform="translate(-1571.885 -146.096)"/>
      <path id="Trazado_349" data-name="Trazado 349" class="cls-1" d="M1603.656,152.7a6.007,6.007,0,0,1,1.5,1.8,6.629,6.629,0,0,1,0,4.8,3.505,3.505,0,0,1-1.5,1.8,3.618,3.618,0,0,1-2.252.6,5.62,5.62,0,0,1-2.7-.751v.6h-2.1V147.6h2.252v5.255a4.077,4.077,0,0,1,2.552-.9A9.915,9.915,0,0,1,1603.656,152.7Zm-1.051,6.305a3.176,3.176,0,0,0,.6-2.1,2.934,2.934,0,0,0-.6-2.1,1.761,1.761,0,0,0-1.651-.751,2.486,2.486,0,0,0-1.8.751,3.978,3.978,0,0,0,0,4.2,2.25,2.25,0,0,0,1.8.751A1.76,1.76,0,0,0,1602.605,159.01Z" transform="translate(-1568.075 -147.6)"/>
      <path id="Trazado_350" data-name="Trazado 350" class="cls-1" d="M1604.051,159.408a2.97,2.97,0,0,1-.751-2.1,2.421,2.421,0,0,1,.9-1.952,4.637,4.637,0,0,1,2.1-1.051,11.586,11.586,0,0,1,2.252-.3,1.477,1.477,0,0,0-.451-1.2c-.3-.3-.6-.3-1.2-.3a3.306,3.306,0,0,0-1.2.15,5.335,5.335,0,0,0-1.351.6l-.15-1.8a6.843,6.843,0,0,1,3.453-.751,3.531,3.531,0,0,1,2.552.9,3.822,3.822,0,0,1,.9,2.852v3.6c0,.15.15.3.15.45.15,0,.3.15.6.15h.3l-.15,1.952h-.9a4.385,4.385,0,0,1-1.351-.3,1.809,1.809,0,0,1-.751-.751,3.267,3.267,0,0,1-1.2.751,5.4,5.4,0,0,1-1.651.3A8.657,8.657,0,0,1,1604.051,159.408Zm3.6-1.2a3.281,3.281,0,0,0,.751-.45v-2.1a4.157,4.157,0,0,0-1.952.45,1.408,1.408,0,0,0-.9,1.2,1.61,1.61,0,0,0,.3.9,1.269,1.269,0,0,0,.9.3A6.246,6.246,0,0,0,1607.654,158.207Z" transform="translate(-1564.716 -146.046)"/>
      <path id="Trazado_351" data-name="Trazado 351" class="cls-1" d="M1610.6,161.112a2.392,2.392,0,0,1-.6-1.8V147.6h2.252v10.659c0,.45,0,.9.15,1.051a.323.323,0,0,0,.3.3h.751l-.15,1.952h-.9A1.871,1.871,0,0,1,1610.6,161.112Z" transform="translate(-1561.358 -147.6)"/>
      <path id="Trazado_352" data-name="Trazado 352" class="cls-1" d="M1619.4,150.552h-3.6V148.3h9.758v2.252h-3.6v10.659h-2.4V150.552Z" transform="translate(-1558.45 -147.249)"/>
      <path id="Trazado_353" data-name="Trazado 353" class="cls-1" d="M1622.951,159.408a2.97,2.97,0,0,1-.751-2.1,2.421,2.421,0,0,1,.9-1.952,4.636,4.636,0,0,1,2.1-1.051,11.589,11.589,0,0,1,2.252-.3,1.477,1.477,0,0,0-.45-1.2c-.3-.3-.6-.3-1.2-.3a3.307,3.307,0,0,0-1.2.15,5.334,5.334,0,0,0-1.351.6l-.15-1.8a6.635,6.635,0,0,1,3.3-.751,3.531,3.531,0,0,1,2.552.9,3.822,3.822,0,0,1,.9,2.852v3.6c0,.15.15.3.15.45.15,0,.3.15.6.15h.3l-.15,1.952h-.9a4.383,4.383,0,0,1-1.351-.3,1.808,1.808,0,0,1-.751-.751,3.27,3.27,0,0,1-1.2.751,5.4,5.4,0,0,1-1.651.3A7.353,7.353,0,0,1,1622.951,159.408Zm3.6-1.2a3.285,3.285,0,0,0,.751-.45v-2.1a4.156,4.156,0,0,0-1.952.45,1.408,1.408,0,0,0-.9,1.2,1.609,1.609,0,0,0,.3.9,1.269,1.269,0,0,0,.9.3C1625.953,158.357,1626.254,158.357,1626.554,158.207Z" transform="translate(-1555.242 -146.046)"/>
      <path id="Trazado_354" data-name="Trazado 354" class="cls-1" d="M1629.5,161.112a2.392,2.392,0,0,1-.6-1.8V147.6h2.252v10.659c0,.45,0,.9.15,1.051a.323.323,0,0,0,.3.3h.751l-.15,1.952h-.9Q1629.951,161.787,1629.5,161.112Z" transform="translate(-1551.883 -147.6)"/>
      <path id="Trazado_355" data-name="Trazado 355" class="cls-1" d="M1634.052,159.558a3.819,3.819,0,0,1-1.651-1.8,5.1,5.1,0,0,1,0-4.8,3.254,3.254,0,0,1,1.5-1.651,4.4,4.4,0,0,1,2.4-.6,3.619,3.619,0,0,1,2.252.6,3.286,3.286,0,0,1,1.351,1.5,4.793,4.793,0,0,1,.45,2.1,3.734,3.734,0,0,1-.15,1.2H1634.2a3.424,3.424,0,0,0,.9,1.8,2.621,2.621,0,0,0,1.8.6,6.209,6.209,0,0,0,2.853-.751l.15,1.952a4.769,4.769,0,0,1-1.351.45,6.16,6.16,0,0,1-1.652.15A8.883,8.883,0,0,1,1634.052,159.558Zm4.053-5.255a2.42,2.42,0,0,0-.45-1.351,1.853,1.853,0,0,0-1.2-.6,2.1,2.1,0,0,0-1.351.45,2.9,2.9,0,0,0-.751,1.351h3.754Z" transform="translate(-1550.429 -146.046)"/>
      <path id="Trazado_356" data-name="Trazado 356" class="cls-1" d="M1645.906,151.8a4.927,4.927,0,0,1,.9,3.153v5.1h-2.252V155.1a3.405,3.405,0,0,0-.45-1.952,1.464,1.464,0,0,0-1.351-.6,2.486,2.486,0,0,0-1.8.751v6.756H1638.7V150.75h2.1v.6a3.93,3.93,0,0,1,2.552-.751A2.822,2.822,0,0,1,1645.906,151.8Z" transform="translate(-1546.97 -146.096)"/>
      <path id="Trazado_357" data-name="Trazado 357" class="cls-1" d="M1646.952,160.21a2.257,2.257,0,0,1-.6-1.651v-5.1H1645l.15-1.952h1.051v-2.1l2.252-.3v2.252h2.1V153.3h-2.1v4.2c0,.45,0,.9.15,1.051a.323.323,0,0,0,.3.3,5.308,5.308,0,0,0,.9.15h.6l-.15,1.952H1648.6A1.912,1.912,0,0,1,1646.952,160.21Z" transform="translate(-1543.812 -146.848)"/>
    </g>
    <g id="Grupo_120" data-name="Grupo 120" transform="translate(1495.5 86.2)">
      <g id="Grupo_118" data-name="Grupo 118" transform="translate(32.128 29.876)">
        <path id="Trazado_358" data-name="Trazado 358" class="cls-1" d="M1526.959,150.137a17.523,17.523,0,0,1-7.507-7.957,25.3,25.3,0,0,1-2.552-12.01,23.516,23.516,0,0,1,2.853-11.86,20.658,20.658,0,0,1,8.107-7.957,25.176,25.176,0,0,1,11.86-2.852,33.006,33.006,0,0,1,6.606.751,22.789,22.789,0,0,1,5.4,1.8l-.9,7.657a26.663,26.663,0,0,0-11.11-2.552c-4.654,0-8.107,1.351-10.509,4.054s-3.6,6.305-3.6,10.809c0,4.654,1.2,8.257,3.453,11.11,2.252,2.7,5.705,4.2,10.059,4.2a31.174,31.174,0,0,0,6.005-.751v-7.807h-6.005V130.17h13.962v19.367a26.32,26.32,0,0,1-6.155,2.4,35.3,35.3,0,0,1-8.107.9A24.294,24.294,0,0,1,1526.959,150.137Z" transform="translate(-1516.9 -105.398)"/>
        <path id="Trazado_359" data-name="Trazado 359" class="cls-1" d="M1547.452,151.139a8.377,8.377,0,0,1-1.952-5.855V106.1h7.657v36.031a15.871,15.871,0,0,0,.3,3.453,1.289,1.289,0,0,0,1.051,1.2,10,10,0,0,0,2.4.15l-.751,6.305h-2.853C1550.755,153.391,1548.653,152.641,1547.452,151.139Z" transform="translate(-1502.563 -106.1)"/>
        <path id="Trazado_360" data-name="Trazado 360" class="cls-1" d="M1562.807,146.176a15.967,15.967,0,0,1-5.555-5.855,17.815,17.815,0,0,1,0-16.214,13.961,13.961,0,0,1,5.555-5.855,16.137,16.137,0,0,1,22.67,5.855,17.007,17.007,0,0,1,1.952,8.107,16.2,16.2,0,0,1-1.952,8.107,16.667,16.667,0,0,1-22.67,5.855Zm14.412-6.756a10.684,10.684,0,0,0,2.1-7.056,11.74,11.74,0,0,0-2.1-7.206,8.023,8.023,0,0,0-12.01,0c-1.5,1.8-2.1,4.2-2.1,7.206a11.276,11.276,0,0,0,2.1,7.056,7.354,7.354,0,0,0,6.005,2.7C1573.766,141.973,1575.868,141.222,1577.219,139.42Z" transform="translate(-1497.65 -101.137)"/>
        <path id="Trazado_361" data-name="Trazado 361" class="cls-1" d="M1582.552,151.139a8.377,8.377,0,0,1-1.952-5.855V106.1h7.657v36.031a15.848,15.848,0,0,0,.3,3.453,1.289,1.289,0,0,0,1.051,1.2,10,10,0,0,0,2.4.15l-.751,6.305h-2.853A6.92,6.92,0,0,1,1582.552,151.139Z" transform="translate(-1484.967 -106.1)"/>
        <path id="Trazado_362" data-name="Trazado 362" class="cls-1" d="M1598.157,146.076a14.245,14.245,0,0,1-5.705-5.855,18.594,18.594,0,0,1-1.952-8.257,17.691,17.691,0,0,1,1.8-7.957,13.783,13.783,0,0,1,5.255-5.7,14.211,14.211,0,0,1,8.107-2.1,14.062,14.062,0,0,1,7.357,1.8,11.528,11.528,0,0,1,4.5,4.8,15.035,15.035,0,0,1,1.5,6.906,22.313,22.313,0,0,1-.451,4.2h-20.117a9.206,9.206,0,0,0,3.3,6.155,10.162,10.162,0,0,0,6.305,1.952,18.461,18.461,0,0,0,9.308-2.552l.3,6.606a14.221,14.221,0,0,1-4.654,1.651,23.743,23.743,0,0,1-5.705.6A17.623,17.623,0,0,1,1598.157,146.076Zm13.062-17.565a7.475,7.475,0,0,0-1.351-4.354,4.851,4.851,0,0,0-4.2-1.8,6.763,6.763,0,0,0-4.654,1.651,8.166,8.166,0,0,0-2.4,4.5Z" transform="translate(-1480.004 -101.037)"/>
        <path id="Trazado_363" data-name="Trazado 363" class="cls-1" d="M1637.921,119.957c1.952,2.552,3,6.005,3,10.359v17.415h-7.657V130.917c0-2.852-.45-5.1-1.5-6.456a5.52,5.52,0,0,0-4.654-2.1,7.262,7.262,0,0,0-5.855,2.7v22.67H1613.6V116.654h7.206l.15,2.252a14.375,14.375,0,0,1,8.407-2.7A9.854,9.854,0,0,1,1637.921,119.957Z" transform="translate(-1468.424 -101.041)"/>
        <path id="Trazado_364" data-name="Trazado 364" class="cls-1" d="M1641.356,148.332a8.626,8.626,0,0,1-2.1-5.7V125.362H1634.9l.751-6.305h3.753v-6.906l7.657-.751v7.657h6.906v6.305h-6.906v14.112a15.86,15.86,0,0,0,.3,3.453,1.629,1.629,0,0,0,1.2,1.2,14.217,14.217,0,0,0,3.3.3h2.1l-.751,6.305h-5.555A8.13,8.13,0,0,1,1641.356,148.332Z" transform="translate(-1457.746 -103.443)"/>
      </g>
      <g id="Grupo_119" data-name="Grupo 119">
        <path id="Trazado_365" data-name="Trazado 365" class="cls-1" d="M1586.029,178.68a50.3,50.3,0,1,1,8.257-62.755h6.606a55.947,55.947,0,1,0-6.906,62.755Z" transform="translate(-1495.5 -86.2)"/>
      </g>
    </g>
  </g>
</svg>
