<svg xmlns="http://www.w3.org/2000/svg" width="144.031" height="99.463" viewBox="0 0 144.031 99.463">
  <g id="g-j-logo-svg-vector" transform="translate(-12.029 -38.269)">
    <path id="Trazado_1286" data-name="Trazado 1286" d="M97.035,75.642h37.113M115.8,56.673v38.3" transform="translate(-12.429 -2.572)" fill="none" stroke="#fff" stroke-miterlimit="2.613" stroke-width="1.624"/>
    <path id="Trazado_1287" data-name="Trazado 1287" stroke="#fff" d="M52.859,88.509c12.745,1.256,14.692,1.256,14.869,4.608h0v22.022c-.178,4.547.236,16.276-17.229,16.994-20.474.418-22.185-28.3-22.068-37.279.059-1.438.118-2.753.118-4.189.059-7.839,2.124-43.564,21.95-43.8,20.592,0,30.741,28.723,30.86,36.263V47.22s-5.9,12.686-8.142,12.686c-1.062,0-8.378-12.926-22.717-13.045-14.045.119-36.466,14.96-36.466,45.3,0,30.517,20.593,39.434,36.229,39.972,14.4.12,17.584-11.61,24.9-11.61,6.845,0,7.376,11.61,7.376,12.268V93.116c0-3.352,2.065-3.352,14.279-4.608H52.859Z" fill="#fff" transform="translate(-0.293 -1.138)" stroke-linecap="square" stroke-linejoin="bevel" stroke-miterlimit="2.613" stroke-width="1.624" fill-rule="evenodd"/>
    <path id="Trazado_1288" data-name="Trazado 1288" d="M132.426,47.518l-11.918-.658h49.15l-10.326,1.077c-6.963,0-6.432,4.966-6.432,4.966v59.9c0,14.423-14.458,19.15-25.313,19.329-6.962-.178-18.232-7.061-18.115-19.329-.119-8.377,4.721-11.61,9.677-11.728,5.133.119,8.968,3.77,9.087,9.455-.119,5.146-3.54,8.736-8.673,8.616-3.954.12-5.665-1.5-6.55-2.393-.119-.3-.3,0-.3,0-.885,4.189,4.721,15.2,14.869,15.378,11.151-.178,11.269-14.6,11.388-14.719-.236-.24-.177-52.3-.058-62a24.552,24.552,0,0,0,.058-2.933c-.058-1.2-.826-4.726-6.55-4.966Z" transform="translate(-14.248 -1.137)" fill="#fff" fill-rule="evenodd"/>
    <path id="Trazado_1289" data-name="Trazado 1289" d="M132.426,47.518l-11.918-.658h49.15l-10.326,1.077c-6.963,0-6.432,4.966-6.432,4.966v59.9c0,14.423-14.458,19.15-25.313,19.329-6.962-.178-18.232-7.061-18.115-19.329-.119-8.377,4.721-11.608,9.677-11.728,5.133.12,8.968,3.77,9.087,9.455-.119,5.146-3.54,8.736-8.673,8.616-3.954.12-5.665-1.5-6.55-2.393-.119-.3-.3,0-.3,0-.885,4.189,4.721,15.2,14.869,15.378,11.151-.178,11.269-14.6,11.388-14.719-.236-.24-.177-52.3-.058-62,0-.958.117-1.975.058-2.933-.058-1.2-.826-4.726-6.55-4.966Z" transform="translate(-14.248 -1.137)" fill="none" stroke="#fff" stroke-linecap="square" stroke-linejoin="bevel" stroke-miterlimit="2.613" stroke-width="1.624"/>
    <path id="Trazado_1290" data-name="Trazado 1290" d="M12.03,39.081H156.06M12.03,136.92H156.06" transform="translate(0)" fill="none" stroke="#fff" stroke-miterlimit="2.613" stroke-width="1.624"/>
  </g>
</svg>
