<svg id="Group_789" data-name="Group 789" xmlns="http://www.w3.org/2000/svg" width="76.743" height="89.097" viewBox="0 0 76.743 89.097">
  <path id="Path_1068" data-name="Path 1068" d="M76.743,45.072a9.6,9.6,0,0,0-9.584-9.584h-2.4V26.355a26.392,26.392,0,0,0-52.784,0v9.059H9.658A9.731,9.731,0,0,0,0,45.072v17.37a9.6,9.6,0,0,0,9.584,9.584H13.7a9.6,9.6,0,0,0,9.584-9.584L23.21,26.355a15.124,15.124,0,1,1,30.248,0l-.075,36.088a9.6,9.6,0,0,0,9.584,9.584h2.4V75.1a2.764,2.764,0,0,1-2.77,2.77H53.458V89.1h9.284a14.028,14.028,0,0,0,14-14Z" fill="#32b9d2"/>
  <rect id="Rectangle_558" data-name="Rectangle 558" width="14.151" height="10.707" transform="translate(29.949 78.166)" fill="#32b9d2"/>
</svg>
