<svg xmlns="http://www.w3.org/2000/svg" width="85.202" height="78.758" viewBox="0 0 85.202 78.758" fill="#fff">
  <g id="Group_792" data-name="Group 792" transform="translate(0.025)">
    <path id="Path_1069" data-name="Path 1069" d="M42.621,78.758l-35.2-35.2A25.489,25.489,0,0,1,42.549,6.641,25.514,25.514,0,0,1,85.177,25.491a25.106,25.106,0,0,1-7.5,17.994l-2.928,2.928ZM25.484,10.782a14.817,14.817,0,0,0-10.5,25.206L42.621,63.549,70.183,35.916a14.743,14.743,0,1,0-20.85-20.85l-6.712,6.712L35.98,15.138A14.692,14.692,0,0,0,25.484,10.782Z"/>
  </g>
</svg>
