<svg xmlns="http://www.w3.org/2000/svg" width="220" height="27.666" viewBox="0 0 220 27.666">
  <defs>
    <style>
      .cls-1 {
        fill: #fff;
      }
    </style>
  </defs>
  <g id="mindspace_logo" transform="translate(-6.6 -5.4)">
    <path id="Trazado_910" data-name="Trazado 910" class="cls-1" d="M459.3,21.767l-8.727-1.9c-4.363-.937-5.551-2.719-5.551-5.232,0-4.295,3.313-6.008,9.047-6.008,6.031,0,8.658,2.01,9.5,5.369a12.946,12.946,0,0,1,.251,1.462.272.272,0,0,0,.3.3h.16c.3,0,.3-.228.3-.274a8.174,8.174,0,0,0-.228-1.6c-.731-3.244-3.153-5.985-10.44-5.985-6.579,0-9.6,2.444-9.6,6.648,0,3.564,2.1,5.209,6.4,6.1l8.224,1.736c3.952.845,5.6,2.536,5.6,5.391,0,2.9-1.736,6.511-9.458,6.511-6.214,0-10.806-1.668-10.943-8.11a.265.265,0,0,0-.274-.3h-.16c-.3,0-.3.228-.3.274.091,3.7,1.371,8.841,11.514,8.841,8.955,0,10.326-4.409,10.326-7.31C465.24,24.531,463.321,22.635,459.3,21.767Z" transform="translate(-337.012 -1.929)"/>
    <path id="Trazado_911" data-name="Trazado 911" class="cls-1" d="M774.812,22.077a.38.38,0,0,0-.411.228c-.525,5.026-5.437,9.481-12.268,9.481-6.762,0-12.725-4.5-12.725-12.839s5.963-12.839,12.725-12.839c6.945,0,10.509,3.221,11.583,7.1a.368.368,0,0,0,.434.274.33.33,0,0,0,.274-.388c-1.485-5.414-6.237-7.7-12.268-7.7-7.425,0-13.456,4.98-13.456,13.57s6.031,13.57,13.456,13.57c5.917,0,11.994-3.381,12.976-10.12C775.155,22.214,774.949,22.1,774.812,22.077Z" transform="translate(-572.565)"/>
    <path id="Trazado_912" data-name="Trazado 912" class="cls-1" d="M652.9,8.288a.719.719,0,0,0-.662-.388.667.667,0,0,0-.663.388c-.206.343-11.08,24.17-11.445,24.947a.409.409,0,0,0,.3.617c.388.069.548-.411.617-.548s3.061-6.762,3.564-7.859c.046-.114.137-.16.3-.16h14.712a.262.262,0,0,1,.251.137c.48,1.074,3.632,8.019,3.7,8.179a.463.463,0,0,0,.594.251.38.38,0,0,0,.228-.525C663.248,30.768,652.991,8.448,652.9,8.288ZM659.2,24.554H645.269c-.114,0-.206-.091-.137-.251.937-2.033,6.991-15.375,6.991-15.421a.128.128,0,0,1,.228,0c.046.091,6.123,13.479,6.968,15.352C659.41,24.371,659.319,24.554,659.2,24.554Z" transform="translate(-488.759 -1.929)"/>
    <path id="Trazado_913" data-name="Trazado 913" class="cls-1" d="M337.256,7.9H325.034a.42.42,0,0,0-.388.411V9.933a.405.405,0,0,0,.388.411h12.108c6.008,0,8.681,3.632,8.681,10.509,0,7.95-4.044,10.509-8.681,10.509h-9.823V14.525H327.3a.418.418,0,0,0-.411-.32h-1.85a.418.418,0,0,0-.411.32H324.6V33.852h13.022c7.265,0,11.08-5.666,11.08-12.976C348.747,12.743,344.818,7.9,337.256,7.9Z" transform="translate(-245.352 -1.929)"/>
    <path id="Trazado_914" data-name="Trazado 914" class="cls-1" d="M221.836,7.9h-1.85a.434.434,0,0,0-.434.434V29.672a1.17,1.17,0,0,1-.046.434,1.365,1.365,0,0,1-.3-.32L201.618,8.243a.972.972,0,0,0-.685-.32h-2.4a.434.434,0,0,0-.434.434V33.464a.434.434,0,0,0,.434.434h1.85a.434.434,0,0,0,.434-.434V12.126a1.17,1.17,0,0,1,.046-.434,1.365,1.365,0,0,1,.3.32l17.705,21.52a.972.972,0,0,0,.685.32h2.285a.434.434,0,0,0,.434-.434V8.334A.467.467,0,0,0,221.836,7.9Z" transform="translate(-147.751 -1.929)"/>
    <path id="Trazado_915" data-name="Trazado 915" class="cls-1" d="M37.053,7.9h-2.97a.744.744,0,0,0-.617.388L22.295,30.106c-.114.206-.274.206-.388,0L10.735,8.288a.8.8,0,0,0-.617-.388H7.034a.434.434,0,0,0-.434.434V33.441a.434.434,0,0,0,.434.434h1.85a.434.434,0,0,0,.434-.434V11.829a1.17,1.17,0,0,1,.046-.434,1.536,1.536,0,0,1,.228.388l11.034,21.7a.8.8,0,0,0,.617.388h1.622a.744.744,0,0,0,.617-.388L34.54,11.807a2.294,2.294,0,0,1,.228-.388,1.074,1.074,0,0,1,.046.434V33.441a.434.434,0,0,0,.434.434H37.1a.434.434,0,0,0,.434-.434V8.334A.512.512,0,0,0,37.053,7.9Z" transform="translate(0 -1.929)"/>
    <path id="Trazado_916" data-name="Trazado 916" class="cls-1" d="M166.285,7.9h-1.85a.434.434,0,0,0-.434.434V33.441a.434.434,0,0,0,.434.434h1.85a.434.434,0,0,0,.434-.434V8.334A.449.449,0,0,0,166.285,7.9Z" transform="translate(-121.442 -1.929)"/>
    <path id="Trazado_917" data-name="Trazado 917" class="cls-1" d="M900.112,33.144h-18.87a.434.434,0,0,1-.434-.434V21.127a.434.434,0,0,1,.434-.434h17.8a.409.409,0,0,0,.434-.366.4.4,0,0,0-.434-.366h-17.8a.434.434,0,0,1-.434-.434V9.065a.434.434,0,0,1,.434-.434h18.642a.409.409,0,0,0,.434-.366.4.4,0,0,0-.434-.366h-19.35a.434.434,0,0,0-.434.434V33.441a.434.434,0,0,0,.434.434h19.578a.371.371,0,1,0,0-.731Z" transform="translate(-673.947 -1.929)"/>
    <path id="Trazado_918" data-name="Trazado 918" class="cls-1" d="M566.69,7.9H553.234c-.343,0-.434.343-.434.571v24.97a.409.409,0,0,0,.365.434.4.4,0,0,0,.366-.434V22.475c0-.32.183-.434.343-.434h11.788c6.442,0,8.224-3.564,8.224-7.059C573.886,11.121,572.218,7.9,566.69,7.9Zm-.822,13.433H553.919a.4.4,0,0,1-.388-.434V8.905c0-.183.068-.251.251-.251h13.136c3.884,0,6.26,1.965,6.26,6.374C573.155,18.934,570.733,21.333,565.867,21.333Z" transform="translate(-421.419 -1.929)"/>
  </g>
</svg>
