<svg xmlns="http://www.w3.org/2000/svg" width="220" height="84.118" viewBox="0 0 220 84.118">
  <defs>
    <style>
      .cls-1 {
        fill: #fff;
        fill-rule: evenodd;
      }
    </style>
  </defs>
  <g id="logo_2_" data-name="logo (2)" transform="translate(-375 -50)">
    <g id="mvpfactory_logo" transform="translate(375 50)">
      <g id="Fill_1" data-name="Fill 1" transform="translate(15.397 0.175)">
        <path id="Trazado_905" data-name="Trazado 905" class="cls-1" d="M0,41.687,42.1,0l41.3,41.687L42.1,83.375Zm8.26,0L42.1,8.337l33.039,33.35L42.1,75.037Z"/>
      </g>
      <g id="Fill_2" data-name="Fill 2">
        <path id="Trazado_906" data-name="Trazado 906" class="cls-1" d="M0,41.775,41.385,0,82.769,41.775,41.385,83.549Zm8.7,0L41.385,8.78,74.072,41.775,41.385,74.77Z"/>
      </g>
      <g id="Fill_3" data-name="Fill 3" transform="translate(32.49 0.52)">
        <path id="Trazado_907" data-name="Trazado 907" class="cls-1" d="M0,41.8,17.541,24.093l2.3,2.323L4.6,41.8,19.865,57.208l-2.3,2.322ZM23.092,17.416,40.345,0,81.755,41.8,40.345,83.6,22.6,65.686h3.239l.623-.747L40.345,78.954,77.154,41.8,40.345,4.644,25.508,19.621Z"/>
      </g>
      <g id="Fill_4" data-name="Fill 4" transform="translate(134.06 26.522)">
        <path id="Trazado_908" data-name="Trazado 908" class="cls-1" d="M0,30.068H4.965V6.865h.083l8.26,23.2h4.3l8.261-23.2h.083v23.2h4.964V0H23.655l-8.01,23.541h-.084L7.343,0H0Zm43.721,0h5.8L59.7,0H54.4L46.766,23.793h-.083L39.216,0H33.792ZM67.876,4.3h7.718c2.753,0,5.131,1.011,5.131,4.99,0,3.81-2.878,4.99-5.215,4.99H67.876V7.883H62.661V30.068h5.215v-11.5H75.8c8.511.042,10.137-5.517,10.137-9.244C85.94,5.559,84.313,0,75.8,0H62.661V4.3h5.215Z"/>
      </g>
      <g id="Fill_5" data-name="Fill 5" transform="translate(134.138 60.016)">
        <path id="Trazado_909" data-name="Trazado 909" class="cls-1" d="M0,10.08H1.707V5.709H6.12V4.3H1.707V1.723H6.735V.234H0ZM15.382,1.93h.041l2.828,8.15h1.831L16.325.234H14.508L10.765,10.08h1.762ZM33.1,3.365C32.9,1.242,31.161.014,28.961,0c-2.923,0-4.673,2.344-4.673,5.157s1.749,5.157,4.673,5.157a4.013,4.013,0,0,0,4.153-3.985H31.448a2.523,2.523,0,0,1-2.487,2.579C26.872,8.908,26,7.047,26,5.157s.874-3.751,2.964-3.751a2.337,2.337,0,0,1,2.432,1.958Zm4.44-1.641h3.088V10.08h1.708V1.723h3.1V.234h-7.9ZM54.521,0C51.6,0,49.849,2.344,49.849,5.157s1.749,5.157,4.672,5.157,4.673-2.344,4.673-5.157S57.445,0,54.521,0Zm0,1.406c2.09,0,2.965,1.862,2.965,3.751s-.874,3.751-2.965,3.751-2.964-1.861-2.964-3.751S52.432,1.406,54.521,1.406Zm11.735.235H69.03c.888,0,1.694.248,1.694,1.5a1.451,1.451,0,0,1-1.667,1.571h-2.8ZM64.549,10.08h1.707V6.026H68.77c1.571,0,1.94.8,1.94,2.607a2.766,2.766,0,0,0,.26,1.447H72.8a4.509,4.509,0,0,1-.533-2.592c0-1.558-.861-2-1.448-2.082V5.378A2.386,2.386,0,0,0,72.431,2.9c0-1.669-1.093-2.662-3.223-2.662H64.549Zm15.955,0h1.707V6.219L85.859.234H83.947L81.406,4.647,78.824.234H76.843L80.5,6.219Z"/>
      </g>
    </g>
  </g>
</svg>
