<svg id="Group_783" data-name="Group 783" xmlns="http://www.w3.org/2000/svg" width="96.5" height="96.827" viewBox="0 0 96.5 96.827">
  <g id="Group_776" data-name="Group 776" transform="translate(7.776)">
    <path id="Path_1061" data-name="Path 1061" d="M26.443,33.885A16.943,16.943,0,1,1,43.385,16.943,16.977,16.977,0,0,1,26.443,33.885Zm0-21.608a4.665,4.665,0,1,0,4.665,4.665A4.663,4.663,0,0,0,26.443,12.277Z" transform="translate(-9.5)" fill="#32b9d2"/>
  </g>
  <g id="Group_777" data-name="Group 777" transform="translate(0 40.352)">
    <path id="Path_1062" data-name="Path 1062" d="M49.437,105.612H37.159V74.018a12.441,12.441,0,0,0-24.882,0v31.676H0V74.018a24.718,24.718,0,1,1,49.437,0Z" transform="translate(0 -49.3)" fill="#32b9d2"/>
  </g>
  <g id="Group_778" data-name="Group 778" transform="translate(65.07)">
    <path id="Path_1063" data-name="Path 1063" d="M100.044,9.822,110.93,11.3l-7.858,7.694,1.964,10.8L95.3,24.8l-9.658,5.156,1.8-10.8L79.5,11.541,90.3,9.9,95.133,0Z" transform="translate(-79.5)" fill="#32b9d2"/>
  </g>
  <g id="Group_779" data-name="Group 779" transform="translate(65.07 33.394)">
    <path id="Path_1064" data-name="Path 1064" d="M100.044,50.622,110.93,52.1l-7.858,7.694,1.964,10.8L95.3,65.6l-9.658,5.156,1.8-10.8L79.5,52.341,90.3,50.7l4.829-9.9Z" transform="translate(-79.5 -40.8)" fill="#32b9d2"/>
  </g>
  <g id="Group_780" data-name="Group 780" transform="translate(65.07 66.871)">
    <path id="Path_1065" data-name="Path 1065" d="M100.044,91.44l10.886,1.473-7.858,7.776,1.964,10.8-9.74-5.075-9.658,5.238,1.8-10.886L79.5,93.241l10.8-1.719L95.133,81.7Z" transform="translate(-79.5 -81.7)" fill="#32b9d2"/>
  </g>
</svg>
