<?xml version="1.0" encoding="UTF-8"?>
<svg width="614px" height="247px" viewBox="0 0 614 247" version="1.1" xmlns="http://www.w3.org/2000/svg" xmlns:xlink="http://www.w3.org/1999/xlink">
    <!-- Generator: Sketch 61.2 (89653) - https://sketch.com -->
    <title>rjm_logo white</title>
    <desc>Created with Sketch.</desc>
    <g id="Logo" stroke="none" stroke-width="1" fill="none" fill-rule="evenodd">
        <g id="rjm_logo-white" transform="translate(-11.000000, 0.000000)" fill="#FFFFFF">
            <g id="globe-connections" transform="translate(0.184810, 0.536709)">
                <text id="RJM" font-family="Mikro-Medium, Mikro" font-size="120" font-weight="400" letter-spacing="15">
                    <tspan x="0.935189873" y="165.463291">RJM</tspan>
                </text>
                <path d="M501.139241,0 C433.131316,0 378,55.1313159 378,123.139241 C378,191.147165 433.131316,246.278481 501.139241,246.278481 C569.147165,246.278481 624.278481,191.147165 624.278481,123.139241 C624.278481,90.4806834 611.30492,59.1597357 588.211832,36.0666485 C565.118745,12.9735613 533.797798,0 501.139241,0 Z M562.708861,29.6093901 C562.708861,30.9527273 562.708861,32.2400921 562.708861,33.5834292 C562.707063,44.996878 561.544316,56.3805452 559.238573,67.5586651 C553.323367,68.8718686 548.574426,73.2700262 546.812059,79.0672862 C545.049692,84.8645463 546.547275,91.1616473 550.730771,95.5448562 C547.106221,104.683653 542.68608,113.486477 537.521289,121.851876 C516.132083,97.6861834 502.19395,67.8465263 497.389091,35.9342693 C510.32768,28.0496284 524.281545,21.9671744 538.864626,17.8551899 C547.251362,20.8122669 555.255867,24.7581495 562.708861,29.6093901 Z M538.976571,139.930955 C548.880561,149.444363 559.849031,157.783405 571.664442,164.782693 C559.465225,166.900774 547.104355,167.949575 534.72267,167.917146 C529.125432,167.917146 523.528193,167.637284 517.930955,167.189505 C517.896844,166.11639 517.765707,165.048561 517.539148,163.999079 C525.396366,156.639481 532.571435,148.58392 538.976571,139.930955 L538.976571,139.930955 Z M501.139241,11.1944764 C507.274403,11.2330691 513.396009,11.7759639 519.442209,12.8176755 C511.402296,15.872388 503.60063,19.520649 496.101726,23.73229 C495.542002,19.7022785 495.542002,15.6162946 495.542002,11.4743383 C497.445063,11.1944764 499.23618,11.1944764 501.139241,11.1944764 Z M531.084465,131.59107 C525.126678,139.8081 518.438788,147.470137 511.102325,154.483774 C506.838641,151.390423 501.37047,150.477124 496.332945,152.016979 C491.295419,153.556834 487.272434,157.37136 485.466974,162.319908 C463.294097,157.027916 442.123977,148.18183 422.777906,136.124833 C427.737548,117.328967 435.939259,99.5428082 447.013947,83.5667664 C452.002929,84.709854 457.240864,83.5151297 461.240742,80.3217668 C465.24062,77.1284039 467.565664,72.2851093 467.555811,67.1668585 C467.551483,64.9159635 467.094653,62.6889128 466.212474,60.6180898 C472.694596,54.1085006 479.69558,48.137073 487.146145,42.7628999 C493.111389,75.9269832 508.345059,106.724225 531.084465,131.59107 L531.084465,131.59107 Z M405.986191,182.134131 C395.370326,165.077169 389.568019,145.465371 389.194476,125.378136 C395.839016,131.060615 402.810147,136.349703 410.072175,141.21832 C407.363399,153.667672 405.993617,166.370988 405.986191,179.111623 C405.986191,180.119125 405.986191,181.126628 405.986191,182.134131 Z M412.926766,129.632037 C404.796697,123.944497 397.072489,117.697801 389.810173,110.937261 C395.403674,60.5241994 434.194377,20.1717627 484.347526,12.593786 C484.347526,18.5641734 484.68336,24.4785884 485.355029,30.3370311 C475.747719,36.8097668 466.787874,44.1950779 458.60023,52.3901496 C456.191471,51.0898097 453.501336,50.3980607 450.764097,50.3751438 C444.362184,50.4212647 438.543543,54.1036846 435.761575,59.8697288 C432.979608,65.635773 433.718445,72.4820069 437.666559,77.5217491 C426.691981,93.4449814 418.374561,111.043885 413.038711,129.632037 L412.926766,129.632037 Z M418.244143,198.31015 C416.190529,181.412308 416.832879,164.295567 420.147204,147.599171 C440.392442,159.638628 462.421483,168.386009 485.411001,173.514384 C485.411001,173.794246 485.411001,174.130081 485.690863,174.465915 C465.6893,187.479078 443.128416,196.04916 419.531507,199.597514 L418.244143,198.31015 Z M501.139241,235.084071 C474.921533,235.112567 449.533151,225.896644 429.438619,209.056847 C452.30581,204.559291 474.075487,195.642279 493.526997,182.8058 C500.667812,186.619509 509.521782,184.673059 514.404695,178.216064 C521.121381,178.831761 527.894039,179.167595 534.778642,179.167595 C552.355384,179.114311 569.864706,176.991399 586.944902,172.842716 C590.806997,174.689804 594.669091,176.536893 598.64313,178.10412 C578.805597,213.300978 541.541548,235.077557 501.139241,235.084071 Z M588.120322,161.088516 C572.36229,153.170321 557.949996,142.819158 545.413395,130.41565 C551.464978,121.032844 556.618578,111.100452 560.8058,100.750288 C561.439711,100.783802 562.07495,100.783802 562.708861,100.750288 C570.43684,100.679102 577.118268,95.3424344 578.895747,87.8213109 C580.673226,80.3001874 577.087681,72.53711 570.20916,69.0139471 C572.336495,58.8042435 573.572537,48.4289785 573.903337,38.0052474 C607.64338,66.5232644 621.270553,112.328148 608.606214,154.651692 C601.890502,157.141396 595.053133,159.28975 588.120322,161.088516 Z" id="Shape" fill-rule="nonzero"></path>
            </g>
        </g>
    </g>
</svg>