<svg id="Group_793" data-name="Group 793" xmlns="http://www.w3.org/2000/svg" width="460.161" height="562.011" viewBox="0 0 460.161 562.011">
  <path id="Path_1070" data-name="Path 1070" d="M298.711,545.463H13.785V419.407H84.611v67.929H281.92V405.173H269.136V465.6l-51.82-51.82L237,402.275l-6.478-10.995L183.308,418.9l-68.952-40.911h71.594V365.2H84.611v41.593H1V582.964H80.265a23.24,23.24,0,0,0-2.3,10.057,22.843,22.843,0,0,0,22.842,22.842H225.924V603.079h-32.9a10.057,10.057,0,1,1,0-20.114H311.5V406.537H298.711V545.463ZM205.895,420.43,260.1,474.636H107.538l57.1-51.991,18.58,10.995ZM97.4,466.539V382.672l55.741,33.069Zm75.088,136.369H100.805a10.057,10.057,0,1,1,0-20.114h71.679a23.24,23.24,0,0,0-2.3,10.057A23.526,23.526,0,0,0,172.484,602.908Zm-158.7-32.814V558.247H298.711v11.847Z" transform="translate(-0.148 -53.938)" fill="#fff"/>
  <path id="Path_1071" data-name="Path 1071" d="M180.6,191.672v61.281a19.424,19.424,0,0,0,19.433,19.433h19.262a29.488,29.488,0,0,0,57.531-9.12V175.99a29.481,29.481,0,0,0-58.724-3.75h-7.756v-8.864h-11.08v8.864A19.5,19.5,0,0,0,180.6,191.672Zm48.411-15.682a18.447,18.447,0,0,1,12.87-17.558v82.844h11.08V158.432a18.474,18.474,0,0,1,12.87,17.558v87.276a18.41,18.41,0,0,1-36.82,0ZM191.68,191.672a8.275,8.275,0,0,1,8.267-8.267h17.9v77.9h-17.9a8.275,8.275,0,0,1-8.267-8.267Z" transform="translate(-26.673 -21.637)" fill="#fff"/>
  <rect id="Rectangle_561" data-name="Rectangle 561" width="11.08" height="10.995" transform="translate(215.122 230.379)" fill="#fff"/>
  <rect id="Rectangle_562" data-name="Rectangle 562" width="11.08" height="10.995" transform="translate(260.55 193.388)" fill="#fff"/>
  <rect id="Rectangle_563" data-name="Rectangle 563" width="11.08" height="26.422" transform="translate(280.324 185.377)" fill="#fff"/>
  <rect id="Rectangle_564" data-name="Rectangle 564" width="11.08" height="62.985" transform="translate(299.586 167.308)" fill="#fff"/>
  <rect id="Rectangle_565" data-name="Rectangle 565" width="11.08" height="10.995" transform="translate(338.622 193.388)" fill="#fff"/>
  <rect id="Rectangle_566" data-name="Rectangle 566" width="11.08" height="26.422" transform="translate(318.848 185.377)" fill="#fff"/>
  <rect id="Rectangle_567" data-name="Rectangle 567" width="11.08" height="10.995" transform="translate(172.422 217.338)" fill="#fff"/>
  <rect id="Rectangle_568" data-name="Rectangle 568" width="11.08" height="10.995" transform="translate(172.422 196.286)" fill="#fff"/>
  <path id="Path_1072" data-name="Path 1072" d="M222.97,84.67a118.312,118.312,0,0,1,62.9-62.9,117.682,117.682,0,0,1,45.939-9.29h8.353A117.372,117.372,0,0,1,386.1,21.77,118.312,118.312,0,0,1,449,84.67a117.681,117.681,0,0,1,9.29,45.939h11.08A129.078,129.078,0,0,0,340.162,1.4H331.81a128.355,128.355,0,0,0-50.286,10.142,129.9,129.9,0,0,0-41.081,27.7A128.737,128.737,0,0,0,202.6,130.61h11.08A118.917,118.917,0,0,1,222.97,84.67Z" transform="translate(-29.923 -0.207)" fill="#fff"/>
  <rect id="Rectangle_569" data-name="Rectangle 569" width="11.08" height="10.995" transform="translate(386.01 230.379)" fill="#fff"/>
  <rect id="Rectangle_570" data-name="Rectangle 570" width="11.08" height="10.995" transform="translate(428.71 217.338)" fill="#fff"/>
  <rect id="Rectangle_571" data-name="Rectangle 571" width="11.08" height="10.995" transform="translate(428.71 196.286)" fill="#fff"/>
  <path id="Path_1073" data-name="Path 1073" d="M386,344.676h2.131a57.259,57.259,0,0,0,56.082-52.332,29.366,29.366,0,0,0,22.671-19.859h19.433a18.993,18.993,0,0,0,8.267-1.875v7.756h11.08V191.772A19.442,19.442,0,0,0,487,172.34v-8.864H475.92v8.864h-7.756a29.481,29.481,0,0,0-58.724,3.75v87.276a29.46,29.46,0,0,0,23.694,28.893A46.115,46.115,0,0,1,388.047,333.6h-1.96a22.328,22.328,0,0,0-21.649-16.705H343.13a22.33,22.33,0,0,0,0,44.661h21.222A22.329,22.329,0,0,0,386,344.676ZM468.42,183.42h17.9a8.275,8.275,0,0,1,8.267,8.267v61.281a8.275,8.275,0,0,1-8.267,8.267h-17.9Zm-47.9,79.861V176a18.447,18.447,0,0,1,12.87-17.558v82.844h11.08V158.447A18.474,18.474,0,0,1,457.34,176v87.276a18.41,18.41,0,1,1-36.82,0Zm-69.037,87.106H343.13a11.25,11.25,0,1,1,0-22.5h8.353Zm12.87,0h-1.79v-22.5h1.79a11.25,11.25,0,1,1,0,22.5Z" transform="translate(-47.38 -21.652)" fill="#fff"/>
  <path id="Path_1074" data-name="Path 1074" d="M504.518,310.385v61.366A30.809,30.809,0,0,1,473.75,402.52H450.567a27.956,27.956,0,0,0,0,55.911H472.9a17.472,17.472,0,1,1,0,34.945h-86V506.16h85.913a30.3,30.3,0,0,0,.085-60.6h-22.33a15.171,15.171,0,0,1,0-30.342H473.75A43.577,43.577,0,0,0,517.3,371.666V310.3H504.518Z" transform="translate(-57.142 -45.829)" fill="#fff"/>
  <rect id="Rectangle_572" data-name="Rectangle 572" width="11.08" height="11.08" transform="translate(197.991 311.944)" fill="#fff"/>
  <rect id="Rectangle_573" data-name="Rectangle 573" width="11.08" height="11.08" transform="translate(220.236 311.944)" fill="#fff"/>
  <rect id="Rectangle_574" data-name="Rectangle 574" width="11.08" height="11.08" transform="translate(242.481 311.944)" fill="#fff"/>
  <rect id="Rectangle_575" data-name="Rectangle 575" width="11.08" height="11.08" transform="translate(52.843 38.439)" fill="#fff"/>
  <rect id="Rectangle_576" data-name="Rectangle 576" width="11.08" height="11.08" transform="translate(75.088 38.439)" fill="#fff"/>
  <rect id="Rectangle_577" data-name="Rectangle 577" width="11.08" height="11.08" transform="translate(97.248 38.439)" fill="#fff"/>
  <rect id="Rectangle_578" data-name="Rectangle 578" width="12.444" height="12.785" transform="translate(30.854 467.746)" fill="#fff"/>
  <rect id="Rectangle_579" data-name="Rectangle 579" width="12.444" height="12.785" transform="translate(54.548 467.746)" fill="#fff"/>
  <rect id="Rectangle_580" data-name="Rectangle 580" width="12.444" height="12.785" transform="translate(78.327 467.746)" fill="#fff"/>
  <rect id="Rectangle_581" data-name="Rectangle 581" width="12.444" height="12.785" transform="translate(329.758 485.815)" fill="#fff"/>
  <rect id="Rectangle_582" data-name="Rectangle 582" width="12.444" height="12.785" transform="translate(353.537 485.815)" fill="#fff"/>
  <rect id="Rectangle_583" data-name="Rectangle 583" width="12.444" height="12.785" transform="translate(377.231 485.815)" fill="#fff"/>
  <path id="Path_1075" data-name="Path 1075" d="M170.718,314.534,161.6,305.5l-17.472,17.472-4.006-4.091L131,327.916l13.126,13.126Z" transform="translate(-19.348 -45.12)" fill="#fff"/>
  <path id="Path_1076" data-name="Path 1076" d="M14.489,334.041V383.56H27.274V333.87l7.841,5.37,7.245-10.569L20.2,313.5,0,329.1,7.841,339.24Z" transform="translate(0 -46.302)" fill="#fff"/>
  <path id="Path_1077" data-name="Path 1077" d="M66.434,340.833V120H17V266.767H29.785V132.785H53.649V340.833Z" transform="translate(-2.511 -17.723)" fill="#fff"/>
  <path id="Path_1078" data-name="Path 1078" d="M141.586,276.929V188.8H91.3V321.5h12.785V201.585H128.8v75.344Z" transform="translate(-13.484 -27.884)" fill="#fff"/>
  <path id="Path_1079" data-name="Path 1079" d="M160.467,115.317V0H1V88.555l129.295-1.108ZM13.785,12.785h133.9v73.3L135.238,74.577,13.785,75.685Z" transform="translate(-0.148)" fill="#fff"/>
  <path id="Path_1080" data-name="Path 1080" d="M508.2,613.485l11.165,15.256L508.37,644.083l10.4,7.415,16.45-22.757L518.513,605.9Z" transform="translate(-75.058 -89.487)" fill="#fff"/>
  <path id="Path_1081" data-name="Path 1081" d="M429.771,613.485l6.563,8.864H386.9v12.785h49.519l-6.392,8.949,10.4,7.415,16.364-22.757L440.084,605.9Z" transform="translate(-57.142 -89.487)" fill="#fff"/>
  <path id="Path_1082" data-name="Path 1082" d="M472.7,613.485l11.25,15.256-10.995,15.342,10.313,7.415,16.45-22.757L483.013,605.9Z" transform="translate(-69.814 -89.487)" fill="#fff"/>
  <path id="Path_1083" data-name="Path 1083" d="M418.266,91.74a33.283,33.283,0,0,0-33.24-33.24H307.04a33.24,33.24,0,0,0,0,66.48h77.986A33.283,33.283,0,0,0,418.266,91.74Zm-58.98,21.052H306.955a21.052,21.052,0,1,1,0-42.1h52.332a33.005,33.005,0,0,0,0,42.1Zm25.74,0A21.052,21.052,0,1,1,406.078,91.74,21.1,21.1,0,0,1,385.026,112.792Z" transform="translate(-40.438 -8.64)" fill="#fff"/>
</svg>
