<svg xmlns="http://www.w3.org/2000/svg" width="119.533" height="119.531" viewBox="0 0 119.533 119.531" fill="#fff">
  <g id="Group_775" data-name="Group 775" transform="translate(-0.034 -0.034)">
    <path id="Path_1059" data-name="Path 1059" d="M111.6,52.2h-1.1a6.3,6.3,0,0,1-6.1-4.7,46.527,46.527,0,0,0-4.5-10.8,6.366,6.366,0,0,1,1-7.7l.8-.8a7.656,7.656,0,0,0,.8-10.1,7.444,7.444,0,0,0-11.2-.7l-1,1a6.493,6.493,0,0,1-7.7,1,51.3,51.3,0,0,0-10.8-4.5,6.3,6.3,0,0,1-4.7-6.1v-1A7.681,7.681,0,0,0,60.5.1a7.423,7.423,0,0,0-8.4,7.4V8.9A6.3,6.3,0,0,1,47.4,15a46.527,46.527,0,0,0-10.8,4.5,6.366,6.366,0,0,1-7.7-1l-.8-.8A7.656,7.656,0,0,0,18,16.9a7.444,7.444,0,0,0-.7,11.2l1,1a6.493,6.493,0,0,1,1,7.7,51.3,51.3,0,0,0-4.5,10.8,6.3,6.3,0,0,1-6.1,4.7H7.8A7.681,7.681,0,0,0,.1,58.9a7.423,7.423,0,0,0,7.4,8.4H8.9A6.3,6.3,0,0,1,15,72a46.527,46.527,0,0,0,4.5,10.8,6.366,6.366,0,0,1-1,7.7l-.8.8a8.014,8.014,0,0,0-1,9.9,7.521,7.521,0,0,0,11.4.9l1-1a6.493,6.493,0,0,1,7.7-1,51.3,51.3,0,0,0,10.8,4.5,6.3,6.3,0,0,1,4.7,6.1v1.1a7.681,7.681,0,0,0,6.6,7.7,7.423,7.423,0,0,0,8.4-7.4v-1.4a6.3,6.3,0,0,1,4.7-6.1,46.527,46.527,0,0,0,10.8-4.5,6.366,6.366,0,0,1,7.7,1l1,1a7.521,7.521,0,0,0,11.4-.9c2.1-2.8,1.5-7.4-1-9.9l-.8-.8a6.493,6.493,0,0,1-1-7.7A51.3,51.3,0,0,0,104.6,72a6.3,6.3,0,0,1,6.1-4.7h1.4a7.417,7.417,0,0,0,7.4-8.4A7.945,7.945,0,0,0,111.6,52.2ZM63.1,90.9A31.385,31.385,0,1,1,90.9,63.1,31.4,31.4,0,0,1,63.1,90.9Z"/>
    <path id="Path_1060" data-name="Path 1060" d="M66.9,45H52.4v7.2H45.2V66.7h7.2V74H66.9V66.7h7.3V52.2H66.9Z"/>
  </g>
</svg>
