<svg id="shhared" xmlns="http://www.w3.org/2000/svg" width="210" height="44.5" viewBox="0 0 210 44.5">
  <defs>
    <style>
      .cls-1 {
        fill: #fff;
      }

      .cls-2 {
        fill: #e5ecec;
      }
    </style>
  </defs>
  <path id="Trazado_919" data-name="Trazado 919" class="cls-1" d="M81.2,5.4H74v9.9h7.2V5.4Zm0,11.8h4.1s-3.5,1.9-4.1,4.9V38.4H74V25.2H66V38.7l-7.3,5.8V0L66,4.8V17.1H81.2Z"/>
  <path id="Trazado_920" data-name="Trazado 920" class="cls-2" d="M34.6,5.4h7.2v9.9H34.6V5.4Zm0,11.8H30.5s3.5,1.9,4.1,4.9V38.4h7.2V25.2h7.9V38.7L57,44.5V0L49.7,4.8V17.1H34.6Z"/>
  <path id="Trazado_921" data-name="Trazado 921" class="cls-1" d="M96.9,25.1H106l-4.6-8.5-4.5,8.5Zm-5.1,9.8H83.9L96.9,11h9.3L119,34.9h-8l-2.3-4H94.1l-2.3,4Z"/>
  <path id="Trazado_922" data-name="Trazado 922" class="cls-1" d="M138.1,16.9H126.5v5.9h11.6a2.319,2.319,0,0,0,2-.7,3.982,3.982,0,0,0,.6-2.5,3.281,3.281,0,0,0-.6-2.1,2.814,2.814,0,0,0-2-.6Zm.3-6c3.8,0,6.3.6,7.7,1.7s2,3.2,2,6.2a9.093,9.093,0,0,1-.9,4.6,4.4,4.4,0,0,1-3.1,2,4.554,4.554,0,0,1,2.8,1.6,4.664,4.664,0,0,1,.9,3v4.9h-7.3V31.3a2.11,2.11,0,0,0-.7-1.9c-.4-.4-1.3-.5-2.6-.5H126.4V35h-7.3V10.9Z"/>
  <path id="Trazado_923" data-name="Trazado 923" class="cls-1" d="M176.4,16.8H157.7v3.6h17.6v5H157.7v3.7h19v5.8H150.4v-24h26Z"/>
  <path id="Trazado_924" data-name="Trazado 924" class="cls-1" d="M197.4,16.8H186V29h12.3a5.315,5.315,0,0,0,3.4-.9,3.777,3.777,0,0,0,1.1-3V20.9a3.615,3.615,0,0,0-1.3-3.1,6.713,6.713,0,0,0-4.1-1Zm2.2-5.9c3.6,0,6.3.6,7.9,1.9,1.7,1.3,2.5,3.3,2.5,6.1v8.2c0,2.7-.7,4.6-2,5.8s-3.4,1.8-6.3,1.8h-23V10.9Z"/>
  <path id="Trazado_925" data-name="Trazado 925" class="cls-1" d="M.1,26.9H7.3v.4c0,.9.2,1.5.7,1.8a5.478,5.478,0,0,0,2.8.5h9.1a3.09,3.09,0,0,0,1.9-.5,1.755,1.755,0,0,0,.6-1.5,1.579,1.579,0,0,0-.7-1.5,6.59,6.59,0,0,0-2.9-.6L7.4,25.2c-2.9-.1-4.8-.6-5.8-1.6S.1,20.8.1,18.1a10.919,10.919,0,0,1,.4-3.4,5.369,5.369,0,0,1,1.3-2.2,5.809,5.809,0,0,1,2.7-1.4,23.928,23.928,0,0,1,5.5-.4H21c2.8,0,4.7.5,5.9,1.5s1.8,2.6,1.8,4.9v.5a2.485,2.485,0,0,1-.1.8h-7v-.1a2.445,2.445,0,0,0-.6-1.8,2.445,2.445,0,0,0-1.8-.6H10.8a6.055,6.055,0,0,0-2.8.4,1.806,1.806,0,0,0-.7,1.5,1.755,1.755,0,0,0,.6,1.5,4.863,4.863,0,0,0,2.2.6l12,.2c2.7.1,4.6.7,5.8,1.8,1.1,1.2,1.7,3.1,1.7,5.9a10.291,10.291,0,0,1-.6,3.9A4.394,4.394,0,0,1,27,34a7.137,7.137,0,0,1-2.6.9,28.785,28.785,0,0,1-4.8.3H10c-4,0-6.6-.5-8-1.3-1.3-.9-2-2.6-2-5v-.7c0-.4.1-.8.1-1.3Z"/>
</svg>
