<svg xmlns="http://www.w3.org/2000/svg" width="117.878" height="80.933" viewBox="0 0 117.878 80.933">
  <g id="Group_399" data-name="Group 399" transform="translate(923.5 -1311.1)">
    <g id="Group_394" data-name="Group 394" transform="translate(-896.655 1311.1)">
      <path id="Path_737" data-name="Path 737" d="M1782.48,391.376a7.38,7.38,0,0,1-5.3-2.263l-12.092-12.553H1710.6V330.1h91.033v46.46h-11.819l.084,7.335a7.357,7.357,0,0,1-4.589,6.937A7.46,7.46,0,0,1,1782.48,391.376Zm-62.47-24.246h49.08l11.316,11.735-.147-11.735H1792.2v-27.6h-72.194Z" transform="translate(-1710.6 -330.1)" fill="#32b9d2"/>
    </g>
    <g id="Group_393" data-name="Group 393" transform="translate(-923.5 1330.736)">
      <path id="Path_738" data-name="Path 738" d="M1601.654,485.1a7.486,7.486,0,0,1-2.829-.566,7.337,7.337,0,0,1-4.589-6.936l.084-7.335H1582.5V423.8h16.115v9.43h-6.685v27.6h11.945l-.147,11.735,11.316-11.735h53.794v9.43h-49.771l-12.092,12.553A7.4,7.4,0,0,1,1601.654,485.1Z" transform="translate(-1582.5 -423.8)" fill="#32b9d2"/>
    </g>
    <g id="Group_397" data-name="Group 397" transform="translate(-873.603 1330.338)">
      <rect id="Rectangle_78" data-name="Rectangle 78" width="9.43" height="9.43" transform="translate(0 0)" fill="#32b9d2"/>
    </g>
    <g id="Group_396" data-name="Group 396" transform="translate(-854.743 1335.053)">
      <path id="Path_739" data-name="Path 739" d="M1910.6,444.4" transform="translate(-1910.6 -444.4)" fill="none"/>
    </g>
    <g id="Group_398" data-name="Group 398" transform="translate(-864.173 1335.053)">
      <path id="Path_740" data-name="Path 740" d="M1865.6,444.4" transform="translate(-1865.6 -444.4)" fill="none"/>
    </g>
    <g id="Group_395" data-name="Group 395" transform="translate(-854.743 1330.338)">
      <rect id="Rectangle_79" data-name="Rectangle 79" width="9.43" height="9.43" transform="translate(0 0)" fill="#32b9d2"/>
    </g>
    <g id="Group_404" data-name="Group 404" transform="translate(-835.743 1330.338)">
      <rect id="Rectangle_79-2" data-name="Rectangle 79" width="9.43" height="9.43" transform="translate(0 0)" fill="#32b9d2"/>
    </g>
  </g>
</svg>
