<svg xmlns="http://www.w3.org/2000/svg" width="1583.25" height="682.926" viewBox="0 0 1583.25 682.926" fill="#4ccce5">
  <g id="Group_820" data-name="Group 820" transform="translate(-901.75 922.463)">
    <path id="Path_833" data-name="Path 833" d="M1242,339.739h45.007v114.2h13.638V326.1H1242Z" transform="translate(789.019 -952.062)" />
    <path id="Path_834" data-name="Path 834" d="M1057.4,453.938h13.638v-114.2h114.473V326.1H1057.4Z" transform="translate(805.774 -952.062)" />
    <path id="Path_835" data-name="Path 835" d="M1025.4,527.453h284.681V478.9H1025.4Zm13.639-34.915h257.4v21.276h-177.21V505.45h-13.638v8.365h-11.911V505.45h-13.638v8.365h-11.911V505.45H1054.5v8.365h-15.457Z" transform="translate(808.679 -965.931)" />
    <path id="Path_836" data-name="Path 836" d="M1186.88,356.5H1085.5v99.379h177.664V356.5h-35.005v13.639h21.367v72.1H1099.139v-72.1h87.741Z" transform="translate(803.224 -954.821)" />
    <path id="Path_837" data-name="Path 837" d="M1209.387,395.717H1179.2v13.638h43.825V299.339h26.55V285.7h-40.188Z" transform="translate(794.719 -948.395)" />
    <rect id="Rectangle_235" data-name="Rectangle 235" width="12.275" height="13.639" transform="translate(2056.932 -662.695)" />
    <rect id="Rectangle_236" data-name="Rectangle 236" width="12.275" height="13.639" transform="translate(2082.391 -662.695)" />
    <rect id="Rectangle_237" data-name="Rectangle 237" width="13.457" height="13.639" transform="translate(1920.638 -551.95)" />
    <rect id="Rectangle_238" data-name="Rectangle 238" width="13.184" height="13.639" transform="translate(1946.097 -551.95)" />
    <rect id="Rectangle_239" data-name="Rectangle 239" width="12.275" height="13.639" transform="translate(2107.85 -662.695)" />
    <rect id="Rectangle_240" data-name="Rectangle 240" width="14.911" height="13.639" transform="translate(2469.088 -922.372)" />
    <rect id="Rectangle_241" data-name="Rectangle 241" width="53.554" height="13.639" transform="translate(2140.127 -662.695)" />
    <rect id="Rectangle_242" data-name="Rectangle 242" width="64.101" height="13.639" transform="translate(2211.775 -662.695)" />
    <rect id="Rectangle_243" data-name="Rectangle 243" width="18.639" height="13.639" transform="translate(2140.127 -686.971)" />
    <rect id="Rectangle_244" data-name="Rectangle 244" width="102.107" height="13.639" transform="translate(2173.769 -686.971)" />
    <rect id="Rectangle_245" data-name="Rectangle 245" width="71.557" height="13.639" transform="translate(2140.127 -711.248)" />
    <rect id="Rectangle_246" data-name="Rectangle 246" width="46.098" height="13.639" transform="translate(2229.778 -711.248)" />
    <rect id="Rectangle_247" data-name="Rectangle 247" width="35.824" height="13.639" transform="translate(2140.127 -735.524)" />
    <rect id="Rectangle_248" data-name="Rectangle 248" width="81.831" height="13.639" transform="translate(2194.045 -735.524)" />
    <rect id="Rectangle_249" data-name="Rectangle 249" width="53.554" height="13.639" transform="translate(2140.127 -759.801)" />
    <rect id="Rectangle_250" data-name="Rectangle 250" width="64.101" height="13.639" transform="translate(2211.775 -759.801)" />
    <rect id="Rectangle_251" data-name="Rectangle 251" width="12.275" height="13.639" transform="translate(2107.85 -759.801)" />
    <path id="Path_838" data-name="Path 838" d="M1326.5,162.539h180.756v141.75h-179.21v13.638h192.849V148.9H1326.5Z" transform="translate(781.349 -935.978)" />
    <path id="Path_839" data-name="Path 839" d="M1252.667,208.8,1235.3,234.259l17.912,23.185,10.729-8.274-11.82-15.366,11.82-17.275Z" transform="translate(789.627 -941.415)" />
    <path id="Path_840" data-name="Path 840" d="M1323.021,233.8l11.82-17.275-11.184-7.729L1306.2,234.259l17.912,23.185,10.82-8.274Z" transform="translate(783.192 -941.415)" />
    <path id="Path_841" data-name="Path 841" d="M1299.432,249.17l-11.82-15.366,11.82-17.275-11.275-7.729L1270.7,234.259l17.912,23.185Z" transform="translate(786.414 -941.415)" />
    <path id="Path_842" data-name="Path 842" d="M937.557,371.8,920.1,397.259l17.912,23.185,10.82-8.274L937.012,396.8l11.82-17.276Z" transform="translate(818.236 -956.21)" />
    <path id="Path_843" data-name="Path 843" d="M1019.832,412.17,1007.921,396.8l11.82-17.276-11.274-7.728L991.1,397.259l17.912,23.185Z" transform="translate(811.792 -956.21)" />
    <path id="Path_844" data-name="Path 844" d="M984.332,412.17,972.512,396.8l11.82-17.276L973.057,371.8,955.6,397.259l17.912,23.185Z" transform="translate(815.014 -956.21)" />
    <path id="Path_845" data-name="Path 845" d="M889.875,633.935l17.366-25.459L889.329,585.2,878.6,593.565l11.82,15.366L878.6,626.206Z" transform="translate(822.003 -975.579)" />
    <path id="Path_846" data-name="Path 846" d="M807.6,593.565l11.911,15.366-11.82,17.275,11.183,7.729,17.457-25.459L818.42,585.2Z" transform="translate(828.448 -975.579)" />
    <path id="Path_847" data-name="Path 847" d="M843.1,593.565l11.82,15.366L843.1,626.206l11.274,7.729,17.457-25.459L853.92,585.2Z" transform="translate(825.225 -975.579)" />
    <path id="Path_848" data-name="Path 848" d="M56.985,458.8,33.8,476.712l8.365,10.82,15.366-11.82,17.275,11.82,7.728-11.274Z" transform="translate(898.682 -964.106)" />
    <path id="Path_849" data-name="Path 849" d="M33.8,547.712l8.365,10.729,15.366-11.82,17.275,11.82,7.728-11.274L56.985,529.8Z" transform="translate(898.682 -970.551)" />
    <path id="Path_850" data-name="Path 850" d="M56.985,494.3,33.8,512.212l8.365,10.82,15.366-11.911,17.275,11.82,7.728-11.184Z" transform="translate(898.682 -967.328)" />
    <path id="Path_851" data-name="Path 851" d="M1321.962,432.339H1459.8V707.291H1290.139V532.536H1276.5V720.93h196.94V418.7H1321.962Z" transform="translate(785.888 -960.467)" />
    <rect id="Rectangle_252" data-name="Rectangle 252" width="13.639" height="300.866" transform="translate(2275.058 -540.948)" />
    <rect id="Rectangle_253" data-name="Rectangle 253" width="13.639" height="300.866" transform="translate(2302.517 -540.948)" />
    <path id="Path_852" data-name="Path 852" d="M1333.321,564.912l-5.183-5.273-9.638,9.638,14.821,14.911,30.55-30.459L1354.233,544Z" transform="translate(782.076 -971.839)" />
    <path id="Path_853" data-name="Path 853" d="M593.909,192.7,559.9,226.614l-10.365-10.365-9.638,9.638,20,20,43.643-43.552Z" transform="translate(852.746 -939.954)" />
    <path id="Path_854" data-name="Path 854" d="M1354.233,600.7l-20.912,20.912-5.183-5.273-9.638,9.638,14.821,14.911,30.55-30.55Z" transform="translate(782.076 -976.986)" />
    <path id="Path_855" data-name="Path 855" d="M1328.138,673.039l-9.638,9.638,14.821,14.911,30.55-30.55-9.638-9.638-20.912,20.912Z" transform="translate(782.076 -982.132)" />
    <rect id="Rectangle_254" data-name="Rectangle 254" width="64.283" height="13.639" transform="translate(2141.127 -476.12)" />
    <rect id="Rectangle_255" data-name="Rectangle 255" width="15.639" height="13.639" transform="translate(2163.858 -425.748)" />
    <rect id="Rectangle_256" data-name="Rectangle 256" width="37.46" height="13.639" transform="translate(2192.408 -425.748)" />
    <rect id="Rectangle_257" data-name="Rectangle 257" width="66.01" height="13.639" transform="translate(2163.858 -402.108)" />
    <rect id="Rectangle_258" data-name="Rectangle 258" width="31.278" height="13.639" transform="translate(2163.858 -372.649)" />
    <rect id="Rectangle_259" data-name="Rectangle 259" width="21.822" height="13.639" transform="translate(2208.138 -372.649)" />
    <rect id="Rectangle_260" data-name="Rectangle 260" width="37.733" height="13.639" transform="translate(2163.858 -349.009)" />
    <rect id="Rectangle_261" data-name="Rectangle 261" width="24.822" height="13.639" transform="translate(2163.858 -319.55)" />
    <rect id="Rectangle_262" data-name="Rectangle 262" width="28.277" height="13.639" transform="translate(2201.592 -319.55)" />
    <rect id="Rectangle_263" data-name="Rectangle 263" width="66.01" height="13.639" transform="translate(2163.858 -295.909)" />
    <path id="Path_856" data-name="Path 856" d="M1575.969,468.4h-7.91v13.639h21.549V363.2H1540.6v37.915h13.638V376.839h21.731Z" transform="translate(761.917 -955.429)" />
    <path id="Path_857" data-name="Path 857" d="M1611.6,474.957h49.644V285.2H1611.6Zm13.639-176.119h22.367V461.41h-22.367Z" transform="translate(755.472 -948.349)" />
    <path id="Path_858" data-name="Path 858" d="M1735.944,224.2H1686.3V469.512h49.644Zm-13.638,231.582h-22.367V237.839h22.367Z" transform="translate(748.692 -942.813)" />
    <path id="Path_859" data-name="Path 859" d="M1691.807,603.5a41.016,41.016,0,0,0-41.006,41.006c0,15.457,17.275,44.916,31.823,66.92a11.076,11.076,0,0,0,9.183,5,10.744,10.744,0,0,0,9.183-5c26.277-39.915,31.823-58.373,31.823-66.92A41.074,41.074,0,0,0,1691.807,603.5Zm0,97.106c-17-26.186-27.368-47.462-27.368-56.1a27.368,27.368,0,1,1,54.736,0C1719.174,653.144,1708.809,674.511,1691.807,700.606Z" transform="translate(751.914 -977.24)" />
    <path id="Path_860" data-name="Path 860" d="M1716.715,698.287l-9.183,10c1.637,1.455,3.546,3.819,3.546,6.637,0,6.637-11,14.093-26.823,14.093s-26.823-7.456-26.823-14.093c0-2.728,1.818-5,3.273-6.455l-9.456-9.82a22.813,22.813,0,0,0-7.365,14.093h-45.644a18,18,0,1,1,0-36.006h34.187V663.1h-34.187a31.641,31.641,0,0,0,0,63.283h49.008c6.274,9.729,20.276,16.275,37.006,16.275,22.731,0,40.461-12.184,40.461-27.732C1724.625,708.835,1721.9,703.106,1716.715,698.287Z" transform="translate(759.557 -982.65)" />
    <rect id="Rectangle_264" data-name="Rectangle 264" width="13.275" height="13.639" transform="translate(2437.083 -334.461)" />
    <path id="Path_861" data-name="Path 861" d="M41.206,112.927a10.744,10.744,0,0,0,9.183-5c26.277-39.915,31.823-58.373,31.823-66.92a41.006,41.006,0,1,0-82.013,0c0,15.457,17.275,44.916,31.823,66.92A10.974,10.974,0,0,0,41.206,112.927Zm0-99.288A27.415,27.415,0,0,1,68.665,41.006c0,8.638-10.456,30-27.368,56.1-17-26.1-27.459-47.462-27.459-56.1A27.4,27.4,0,0,1,41.206,13.639Z" transform="translate(901.732 -922.463)" />
    <rect id="Rectangle_265" data-name="Rectangle 265" width="13.275" height="13.639" transform="translate(936.392 -883.184)" />
    <rect id="Rectangle_266" data-name="Rectangle 266" width="13.093" height="13.639" transform="translate(2211.775 -509.852)" />
    <path id="Path_862" data-name="Path 862" d="M1725.052,597.214V538.2a29.026,29.026,0,0,0-29-29h-52.554a23.64,23.64,0,1,0,0,47.28h16.457a7.365,7.365,0,1,1,0,14.73H1571.3v13.638h88.651a21,21,0,0,0,0-42.007h-16.457a10,10,0,0,1,0-20h52.554a15.405,15.405,0,0,1,15.366,15.366v59.009Z" transform="translate(759.13 -968.681)" />
    <rect id="Rectangle_267" data-name="Rectangle 267" width="14.275" height="13.639" transform="translate(2332.885 -440.751)" />
    <rect id="Rectangle_268" data-name="Rectangle 268" width="13.184" height="13.639" transform="translate(2330.43 -359.829)" />
    <rect id="Rectangle_269" data-name="Rectangle 269" width="13.184" height="13.639" transform="translate(2355.525 -359.829)" />
    <rect id="Rectangle_270" data-name="Rectangle 270" width="13.184" height="13.639" transform="translate(2380.711 -359.829)" />
    <rect id="Rectangle_271" data-name="Rectangle 271" width="13.184" height="13.639" transform="translate(1858.447 -397.38)" />
    <rect id="Rectangle_272" data-name="Rectangle 272" width="13.184" height="13.639" transform="translate(1883.542 -397.38)" />
    <rect id="Rectangle_273" data-name="Rectangle 273" width="13.184" height="13.639" transform="translate(1908.727 -397.38)" />
    <rect id="Rectangle_274" data-name="Rectangle 274" width="13.184" height="13.639" transform="translate(2109.395 -587.865)" />
    <rect id="Rectangle_275" data-name="Rectangle 275" width="13.184" height="13.639" transform="translate(2134.49 -587.865)" />
    <rect id="Rectangle_276" data-name="Rectangle 276" width="13.184" height="13.639" transform="translate(2159.676 -587.865)" />
    <rect id="Rectangle_277" data-name="Rectangle 277" width="13.639" height="13.184" transform="translate(1778.616 -763.165)" />
    <rect id="Rectangle_278" data-name="Rectangle 278" width="13.639" height="13.184" transform="translate(1778.616 -737.979)" />
    <rect id="Rectangle_279" data-name="Rectangle 279" width="13.639" height="13.184" transform="translate(1778.616 -712.884)" />
    <path id="Path_863" data-name="Path 863" d="M1422.5,379.923h59.282l-7,10.183,11.274,7.638,17.457-25.459L1485.6,349.1l-10.82,8.365,6.819,8.82h-59.1Z" transform="translate(772.636 -954.149)" />
    <path id="Path_864" data-name="Path 864" d="M330.7,472.069h99.925l22.094,20.912a12.121,12.121,0,0,0,8.183,3.273,11.066,11.066,0,0,0,4.728-1,11.923,11.923,0,0,0,7.183-10.911V472.069h32.914V379.6H330.7Zm13.638-78.831H492v65.192H459.084v21.822l-23-21.822H344.339Z" transform="translate(871.734 -956.918)" />
    <path id="Path_865" data-name="Path 865" d="M677.59,430.877V290.4H456.1v65.829h13.638v-52.19H663.951v113.2H586.666l-24,20.094-.364-20.094H535.113v13.639h13.729l.182,9.456a11.972,11.972,0,0,0,7.183,10.911,12.512,12.512,0,0,0,5.092,1.091,12.089,12.089,0,0,0,7.819-2.91l22.367-18.639h86.1Z" transform="translate(860.352 -948.821)" />
    <rect id="Rectangle_280" data-name="Rectangle 280" width="14.911" height="13.639" transform="translate(1235.075 -537.311)" />
    <rect id="Rectangle_281" data-name="Rectangle 281" width="74.557" height="13.639" transform="translate(1265.626 -537.311)" />
    <rect id="Rectangle_282" data-name="Rectangle 282" width="87.923" height="13.639" transform="translate(1352.094 -625.325)" />
    <rect id="Rectangle_283" data-name="Rectangle 283" width="48.462" height="13.639" transform="translate(1454.201 -625.325)" />
    <rect id="Rectangle_284" data-name="Rectangle 284" width="113.291" height="13.639" transform="translate(1389.372 -597.048)" />
    <rect id="Rectangle_285" data-name="Rectangle 285" width="14.911" height="13.639" transform="translate(1406.375 -565.679)" />
    <rect id="Rectangle_286" data-name="Rectangle 286" width="14.911" height="13.639" transform="translate(1433.107 -565.679)" />
    <rect id="Rectangle_287" data-name="Rectangle 287" width="14.911" height="13.639" transform="translate(1459.747 -565.679)" />
    <rect id="Rectangle_288" data-name="Rectangle 288" width="14.911" height="13.639" transform="translate(1486.388 -565.679)" />
    <path id="Path_866" data-name="Path 866" d="M707.367,379.1v13.639a67.829,67.829,0,1,1-67.829,67.829H625.9a81.567,81.567,0,0,0,74.648,81.195V554.4h13.638V541.762A81.474,81.474,0,0,0,707.367,379.1Z" transform="translate(844.94 -956.872)" />
    <rect id="Rectangle_289" data-name="Rectangle 289" width="15.366" height="13.639" transform="translate(1552.307 -503.124)" />
    <path id="Path_867" data-name="Path 867" d="M1013.1,580.592V566.953h-24a7.392,7.392,0,0,1-7.365-7.365,21.012,21.012,0,0,0-21-21H886.8a6.547,6.547,0,1,1,0-13.093h33.1a32.1,32.1,0,1,0,0-64.192H814.7v13.639H919.9a18.457,18.457,0,0,1,0,36.915H886.8a20.185,20.185,0,1,0,0,40.37h73.83A7.392,7.392,0,0,1,968,559.588a21.012,21.012,0,0,0,21,21Z" transform="translate(827.803 -964.333)" />
    <path id="Path_868" data-name="Path 868" d="M720.068,588.8H706.43v21.731H690.7V736.369h42.552V610.531H720.068Zm-.455,133.93H704.339V624.169h15.275Z" transform="translate(839.058 -975.906)" />
    <path id="Path_869" data-name="Path 869" d="M991.5,739.818h226.127V626.8H991.5Zm101.743-38.824a21.071,21.071,0,0,0,11.365,3.182,22.135,22.135,0,0,0,11.365-3.182l32.823-20.549,45.644,45.643H1014.867l45.644-45.643Zm67.283-27.913,43.461-27.186V716.45Zm-51.917,16.366a7.8,7.8,0,0,1-8.183,0l-78.376-49.008h165.026Zm-60.1-16.366-43.461,43.461V645.985Z" transform="translate(811.756 -979.355)" />
    <rect id="Rectangle_290" data-name="Rectangle 290" width="112.29" height="13.639" transform="translate(1935.913 -397.471)" />
    <rect id="Rectangle_291" data-name="Rectangle 291" width="70.102" height="13.639" transform="translate(1686.328 -315.003)" />
    <rect id="Rectangle_292" data-name="Rectangle 292" width="54.554" height="13.639" transform="translate(1721.425 -285.635)" />
    <rect id="Rectangle_293" data-name="Rectangle 293" width="41.188" height="13.639" transform="translate(1663.961 -285.635)" />
    <rect id="Rectangle_294" data-name="Rectangle 294" width="18.367" height="13.639" transform="translate(1741.701 -253.721)" />
    <path id="Path_870" data-name="Path 870" d="M709.755,520.427a57.464,57.464,0,0,0,0-114.927v13.638a43.912,43.912,0,0,1,43.28,37.006h-13v13.639h12.911a43.811,43.811,0,0,1-86.559,0h27.55V456.144H652.2v6.819A57.663,57.663,0,0,0,709.755,520.427Z" transform="translate(842.553 -959.268)" />
    <rect id="Rectangle_295" data-name="Rectangle 295" width="14.275" height="13.639" transform="translate(2319.883 -663.149)" />
    <rect id="Rectangle_296" data-name="Rectangle 296" width="14.275" height="13.639" transform="translate(1107.873 -253.721)" />
    <rect id="Rectangle_297" data-name="Rectangle 297" width="14.275" height="13.639" transform="translate(1145.879 -504.942)" />
    <rect id="Rectangle_298" data-name="Rectangle 298" width="14.275" height="13.639" transform="translate(2386.712 -718.613)" />
    <path id="Path_871" data-name="Path 871" d="M1541.3,108.935a79.742,79.742,0,0,0,79.649,79.649H1643.5a79.649,79.649,0,1,0,0-159.3h-13.729V13.739h10.274V.1h-34.1V13.739h10.275v15.73A79.676,79.676,0,0,0,1541.3,108.935Zm13.638,0a66.01,66.01,0,1,1,66.01,66.01A66.122,66.122,0,0,1,1554.939,108.935Zm154.57,0a66.117,66.117,0,0,1-33.278,57.282,79.511,79.511,0,0,0,0-114.564A66.117,66.117,0,0,1,1709.509,108.935Z" transform="translate(761.853 -922.472)" />
    <path id="Path_872" data-name="Path 872" d="M1580.139,115.806a42.71,42.71,0,0,1,12.547-30.368l-9.638-9.638a56.9,56.9,0,0,0-14.639,54.736l13.184-3.546A45.423,45.423,0,0,1,1580.139,115.806Z" transform="translate(759.566 -929.343)" />
    <path id="Path_873" data-name="Path 873" d="M1574.7,150.019a59.2,59.2,0,0,0,9.183,12l9.638-9.638a43.071,43.071,0,0,1-7-9.183Z" transform="translate(758.822 -935.461)" />
    <path id="Path_874" data-name="Path 874" d="M1644.216,120.956h38.733v-6.819a56.692,56.692,0,0,0-83.65-49.917l6.455,12a43.066,43.066,0,0,1,63.01,31.1h-24.549Z" transform="translate(756.589 -927.673)" />
    <rect id="Rectangle_299" data-name="Rectangle 299" width="13.639" height="13.639" transform="translate(2374.073 -820.265)" />
    <path id="Path_875" data-name="Path 875" d="M661.339,52.908H785.085V98.461h13.639V52.908H813.09V98.461h13.638V.9H647.7V248.3h13.638Zm151.842-38.37V39.27H798.815V14.539Zm-28,0V39.27H661.339V14.539Z" transform="translate(842.961 -922.545)" />
    <rect id="Rectangle_300" data-name="Rectangle 300" width="24.186" height="13.639" transform="translate(1552.307 -642.237)" />
    <rect id="Rectangle_301" data-name="Rectangle 301" width="14.639" height="13.639" transform="translate(1586.494 -642.237)" />
    <path id="Path_876" data-name="Path 876" d="M881.53,282.8l-12.275,5.91,9.638,20.185L867.8,332.171l11.093,23.276-9.638,20.276,12.275,5.819,12.456-26.1-11.093-23.276L893.986,308.9Z" transform="translate(822.984 -948.132)" />
    <path id="Path_877" data-name="Path 877" d="M923.039,328.834,935.5,302.648l-11-23.276,11-23.185L923.039,230l-12.275,5.91,9.638,20.276-11,23.185,11,23.276-9.638,20.276Z" transform="translate(819.208 -943.339)" />
    <path id="Path_878" data-name="Path 878" d="M749.6,163.388a37.233,37.233,0,0,0,37.188,37.188h87.287a37.188,37.188,0,0,0,0-74.375H786.788A37.233,37.233,0,0,0,749.6,163.388Zm13.638,0a23.554,23.554,0,0,1,23.549-23.549h58.646a37.02,37.02,0,0,0,0,47.1H786.879A23.573,23.573,0,0,1,763.239,163.388Zm134.476,0a23.549,23.549,0,1,1-23.549-23.549A23.554,23.554,0,0,1,897.714,163.388Z" transform="translate(833.712 -933.918)" />
    <path id="Path_879" data-name="Path 879" d="M794.513,352.684h38.461V224.3H819.335v76.285H804.969V224.3H791.33v76.285H775.782v13.638H791.33v24.913H715.5v13.638h79.012Zm24.822-38.461v24.913H804.969V314.223Z" transform="translate(836.807 -942.822)" />
    <rect id="Rectangle_302" data-name="Rectangle 302" width="13.639" height="12.729" transform="translate(1686.783 -881.638)" />
    <rect id="Rectangle_303" data-name="Rectangle 303" width="13.639" height="12.729" transform="translate(1815.258 -881.638)" />
    <rect id="Rectangle_304" data-name="Rectangle 304" width="13.639" height="39.461" transform="translate(1718.879 -895.004)" />
    <rect id="Rectangle_305" data-name="Rectangle 305" width="13.639" height="39.461" transform="translate(1783.071 -895.004)" />
    <rect id="Rectangle_306" data-name="Rectangle 306" width="13.639" height="93.833" transform="translate(1750.975 -922.19)" />
    <path id="Path_880" data-name="Path 880" d="M716.124,77.5H682.3v78.376h13.638V91.139h20.185Z" transform="translate(839.821 -929.497)" />
    <rect id="Rectangle_307" data-name="Rectangle 307" width="13.639" height="14.639" transform="translate(1522.121 -757.892)" />
    <rect id="Rectangle_308" data-name="Rectangle 308" width="110.927" height="13.639" transform="translate(2066.57 -896.641)" />
    <path id="Path_881" data-name="Path 881" d="M1435.339,64.719a18.665,18.665,0,0,0,18.639-18.639V19.439a18.639,18.639,0,0,0-37.279,0v26.55A18.626,18.626,0,0,0,1435.339,64.719Zm-5.092-45.28a4.986,4.986,0,0,1,5-5,5.045,5.045,0,0,1,5,5v26.55a4.986,4.986,0,0,1-5,5,5.045,5.045,0,0,1-5-5Z" transform="translate(773.162 -922.536)" />
    <rect id="Rectangle_309" data-name="Rectangle 309" width="79.285" height="13.639" transform="translate(2241.78 -896.641)" />
    <rect id="Rectangle_310" data-name="Rectangle 310" width="34.551" height="13.639" transform="translate(2066.57 -839.086)" />
    <path id="Path_882" data-name="Path 882" d="M1332.6,82.739v26.55a18.639,18.639,0,0,0,37.279,0V82.739a18.639,18.639,0,0,0-37.279,0Zm23.731,0v26.55a4.986,4.986,0,0,1-5,5,5.045,5.045,0,0,1-5-5V82.739a5,5,0,0,1,10,0Z" transform="translate(780.796 -928.281)" />
    <rect id="Rectangle_311" data-name="Rectangle 311" width="120.565" height="13.639" transform="translate(2165.404 -839.086)" />
    <path id="Path_883" data-name="Path 883" d="M1053.314,302.839V289.2a32.906,32.906,0,0,0-32.914,32.914h13.638A19.286,19.286,0,0,1,1053.314,302.839Z" transform="translate(809.133 -948.712)" />
    <path id="Path_884" data-name="Path 884" d="M1050.936,276.639V263A56.809,56.809,0,0,0,994.2,319.736h13.639A43.131,43.131,0,0,1,1050.936,276.639Z" transform="translate(811.511 -946.334)" />
    <path id="Path_885" data-name="Path 885" d="M417.839,356.114a19.286,19.286,0,0,1,19.276-19.276V323.2A32.906,32.906,0,0,0,404.2,356.114Z" transform="translate(865.062 -951.798)" />
    <path id="Path_886" data-name="Path 886" d="M434.836,297A56.809,56.809,0,0,0,378.1,353.736h13.639a43.131,43.131,0,0,1,43.1-43.1Z" transform="translate(867.431 -949.42)" />
    <path id="Path_887" data-name="Path 887" d="M1127.995,154.99a26.1,26.1,0,1,0-26.095-26.1A26.154,26.154,0,0,0,1127.995,154.99Zm0-38.642a12.457,12.457,0,1,1-12.456,12.457A12.475,12.475,0,0,1,1127.995,116.348Z" transform="translate(801.735 -931.794)" />
    <path id="Path_888" data-name="Path 888" d="M1117.273,175.736v12.638h13.639V175.736a51.216,51.216,0,0,0,43.916-43.825h12.457V118.273h-12.457a51.216,51.216,0,0,0-43.916-43.825V61.9h-13.639V74.538a51.116,51.116,0,0,0-43.643,43.734H1060.9v13.639h12.729A51.213,51.213,0,0,0,1117.273,175.736Zm7-88.014a37.46,37.46,0,1,1-37.461,37.46A37.524,37.524,0,0,1,1124.274,87.722Z" transform="translate(805.457 -928.081)" />
    <path id="Path_889" data-name="Path 889" d="M1019.031,140.95h13.275a6.012,6.012,0,0,1,5.728,4.092,85.667,85.667,0,0,0,7.092,16.184,6.057,6.057,0,0,1-1,7.274l-8.729,8.729a19.674,19.674,0,1,0,27.823,27.823l9.456-9.456a5.829,5.829,0,0,1,7-1.091,82.491,82.491,0,0,0,16.457,6.456,5.95,5.95,0,0,1,4.364,5.819v12.366a19.73,19.73,0,1,0,39.461,0V205.869a6.012,6.012,0,0,1,4.092-5.728,88.286,88.286,0,0,0,16.184-7.092,6.058,6.058,0,0,1,7.274,1l8.729,8.729a19.706,19.706,0,0,0,27.823-27.914l-9.456-9.456a5.829,5.829,0,0,1-1.091-7,82.488,82.488,0,0,0,6.456-16.457,5.949,5.949,0,0,1,5.819-4.364h12.275a19.73,19.73,0,0,0,0-39.461h-13.275a6.012,6.012,0,0,1-5.728-4.092,85.658,85.658,0,0,0-7.092-16.184,6.057,6.057,0,0,1,1-7.274l8.729-8.729a19.738,19.738,0,1,0-27.914-27.914l-9.274,9.456a5.828,5.828,0,0,1-7,1.091,82.5,82.5,0,0,0-16.457-6.456,5.949,5.949,0,0,1-4.364-5.819V19.93a19.73,19.73,0,0,0-39.461,0V33.205a6.012,6.012,0,0,1-4.092,5.728,85.668,85.668,0,0,0-16.185,7.092,6.057,6.057,0,0,1-7.274-1l-8.729-8.729a19.738,19.738,0,0,0-27.913,27.914l9.456,9.456a5.828,5.828,0,0,1,1.091,7,82.5,82.5,0,0,0-6.455,16.457,5.949,5.949,0,0,1-5.819,4.364h-12.275a19.73,19.73,0,1,0,0,39.461Zm0-25.731h12.275a19.751,19.751,0,0,0,19-14.457,68.274,68.274,0,0,1,5.364-13.729,19.486,19.486,0,0,0-3.637-22.913l-9.456-9.456a6.108,6.108,0,1,1,8.638-8.638l8.729,8.729a19.7,19.7,0,0,0,23.64,3.182,66.5,66.5,0,0,1,13.548-5.91,19.454,19.454,0,0,0,13.639-18.73V19.93a6.092,6.092,0,1,1,12.183,0V32.205a19.751,19.751,0,0,0,14.457,19,68.277,68.277,0,0,1,13.729,5.364,19.486,19.486,0,0,0,22.913-3.637l9.456-9.456a6.108,6.108,0,0,1,8.638,8.638l-8.729,8.729a19.7,19.7,0,0,0-3.182,23.64,66.48,66.48,0,0,1,5.91,13.548,19.454,19.454,0,0,0,18.73,13.639h13.275a6.092,6.092,0,0,1,0,12.184h-12.275a19.751,19.751,0,0,0-19,14.457,68.282,68.282,0,0,1-5.365,13.729,19.486,19.486,0,0,0,3.637,22.913l9.456,9.456a6.146,6.146,0,0,1,0,8.638,5.918,5.918,0,0,1-4.273,1.818,5.769,5.769,0,0,1-4.273-1.818l-8.729-8.729a19.7,19.7,0,0,0-23.64-3.182,66.491,66.491,0,0,1-13.548,5.91,19.454,19.454,0,0,0-13.638,18.73v13.366a6.092,6.092,0,1,1-12.184,0V206.869a19.751,19.751,0,0,0-14.457-19,68.276,68.276,0,0,1-13.73-5.364,19.581,19.581,0,0,0-22.913,3.637l-9.456,9.456a5.917,5.917,0,0,1-4.273,1.818,5.769,5.769,0,0,1-4.273-1.818,5.918,5.918,0,0,1-1.818-4.273,5.769,5.769,0,0,1,1.818-4.273l8.729-8.729a19.7,19.7,0,0,0,3.182-23.64,66.492,66.492,0,0,1-5.91-13.548,19.454,19.454,0,0,0-18.73-13.639h-13.457a6.092,6.092,0,0,1-6.092-6.092A6.231,6.231,0,0,1,1019.031,115.218Z" transform="translate(811.048 -922.481)" />
    <rect id="Rectangle_312" data-name="Rectangle 312" width="74.284" height="13.639" transform="translate(1022.405 -463.39)" />
    <path id="Path_890" data-name="Path 890" d="M176.07,563.323V549.139h30.914V535.5H132.7v13.639h29.732v14.184Z" transform="translate(889.705 -971.068)" />
    <path id="Path_891" data-name="Path 891" d="M151.512,385.321,169.06,397.5l18.185-12.184,11.638,8.91,8.365-10.82L187.882,368.5l-18.73,12.457L151.058,368.5,131.6,383.411l8.365,10.82Z" transform="translate(889.805 -955.91)" />
    <rect id="Rectangle_313" data-name="Rectangle 313" width="13.639" height="15.002" transform="translate(1052.137 -531.765)" />
    <path id="Path_892" data-name="Path 892" d="M28.3,270.336H84.486A88.4,88.4,0,0,0,95.67,384.627H42.57a28.186,28.186,0,0,1,0-56.373H54.027V314.616H42.57a41.825,41.825,0,1,0,0,83.65h64.556a79.248,79.248,0,0,1,13.366,43.916v8.456h73.466v-8.456a79.888,79.888,0,0,1,13.548-44.007h79.558V384.536H218.871a88.827,88.827,0,0,0,11.184-114.382H270.97a22.933,22.933,0,0,1,22.913,22.913,23.168,23.168,0,0,1-22.913,23.185H259.877v13.638H270.97a36.551,36.551,0,1,0,0-73.1H218.234a88.532,88.532,0,0,0-122.019,0H28.3a14.457,14.457,0,1,1,0-28.914,19.712,19.712,0,0,0,19.73-19.73V142.5c19.367-2.182,33.642-13.366,33.642-27.368,0-6.183-2.728-11.911-8-16.73l-9.183,10c1.637,1.455,3.546,3.819,3.546,6.637,0,6.637-11,14.093-26.822,14.093s-26.822-7.456-26.822-14.093c0-2.728,1.818-5,3.273-6.456L8.2,98.764C3.291,103.492.746,109.038.746,115.039c0,13.911,14.366,25.186,33.642,27.368v65.647a6.092,6.092,0,0,1-6.092,6.092,28.1,28.1,0,1,0,0,56.191Zm127.838-24.367a74.981,74.981,0,0,1,53.281,128.839A95.059,95.059,0,0,0,180.5,437H134.039a93.467,93.467,0,0,0-28.55-61.919A74.468,74.468,0,0,1,82.3,321.435C81.849,280.429,115.036,246.514,156.134,245.969Z" transform="translate(901.732 -931.394)" />
    <rect id="Rectangle_314" data-name="Rectangle 314" width="13.639" height="34.551" transform="translate(1052.319 -757.164)" />
    <rect id="Rectangle_315" data-name="Rectangle 315" width="13.639" height="34.551" transform="translate(967.201 -716.844) rotate(-45)" />
    <rect id="Rectangle_316" data-name="Rectangle 316" width="34.551" height="13.639" transform="translate(1116.633 -701.153) rotate(-45)" />
    <path id="Path_893" data-name="Path 893" d="M554.673,558.137a.686.686,0,0,1-.455.727.955.955,0,0,1-.909-.091l-24-20.821H395.739V498.4H382.1v53.19H524.122l20.185,17.548a14.4,14.4,0,0,0,9.456,3.546,14.8,14.8,0,0,0,6.092-1.364,14.393,14.393,0,0,0,8.456-13.184V551.59h51.008V537.952H554.582v20.185Z" transform="translate(867.068 -967.701)" />
    <rect id="Rectangle_317" data-name="Rectangle 317" width="88.196" height="13.639" transform="translate(1363.368 -467.846)" />
    <path id="Path_894" data-name="Path 894" d="M575.2,653.323H271.239V518.938h81.195V505.3H257.6V693.239h84.559a24.792,24.792,0,0,0-2.455,10.729,24.369,24.369,0,0,0,24.367,24.367H497.547V714.7h-35.1a10.729,10.729,0,1,1,0-21.458H588.834V566.4H575.2ZM440.538,714.606H364.071a10.729,10.729,0,0,1,0-21.458h76.467a24.792,24.792,0,0,0-2.455,10.729A24.493,24.493,0,0,0,440.538,714.606ZM271.239,679.6V666.962H575.2V679.6Z" transform="translate(878.369 -968.327)" />
    <rect id="Rectangle_318" data-name="Rectangle 318" width="14.184" height="13.639" transform="translate(1257.443 -372.649)" />
    <rect id="Rectangle_319" data-name="Rectangle 319" width="14.184" height="13.639" transform="translate(1282.81 -372.649)" />
    <rect id="Rectangle_320" data-name="Rectangle 320" width="14.184" height="13.639" transform="translate(1308.178 -372.649)" />
    <rect id="Rectangle_321" data-name="Rectangle 321" width="108.835" height="13.639" transform="translate(1612.589 -253.721)" />
    <path id="Path_895" data-name="Path 895" d="M228.205,99.561h26.822l21.913,21.913-3,3a21.245,21.245,0,0,0-6.274,15.184,21.452,21.452,0,0,0,20.549,21.458,21.869,21.869,0,0,0,6.274,14.275,21.069,21.069,0,0,0,14.275,6.274,21.869,21.869,0,0,0,6.274,14.275h0a21.487,21.487,0,0,0,14.275,6.274,21.869,21.869,0,0,0,6.274,14.275,21.245,21.245,0,0,0,15.184,6.274,21.626,21.626,0,0,0,15.184-6.274L399.5,182.938l17.275,17.275a7.394,7.394,0,1,1-10.456,10.456l-8.365-8.365-9.638,9.638,8.365,8.365a21.073,21.073,0,0,0,29.823,0,20.7,20.7,0,0,0,6.092-14,21.126,21.126,0,0,0,14-6.092,20.7,20.7,0,0,0,6.092-14,21.126,21.126,0,0,0,14-6.092,20.7,20.7,0,0,0,6.092-14,20.973,20.973,0,0,0,14-35.824L414.053,57.555A136.536,136.536,0,0,0,480.7,50.735l1.909-.727-4.637-12.82-1.909.727a123.066,123.066,0,0,1-80.195,1.455l-.182-.182-.273-.091c-1.091-.364-2.182-.727-3.364-1.091L382.5,34.551,370.046,47.007a33.109,33.109,0,0,1-41.461,4.364l37.733-37.733H510.8V87.559H491.428V101.2H510.8v40.643h70.1V128.2H524.434V13.639H583.17V0H360.68L308.854,51.826l4.819,4.819a46.756,46.756,0,0,0,66.01,0l6.365-6.365,1.455.546.818.273,88.65,88.65a7.452,7.452,0,0,1,2.182,5.183,7.08,7.08,0,0,1-2.182,5.183,7.452,7.452,0,0,1-5.183,2.182,6.936,6.936,0,0,1-5.183-2.182l-27.823-27.823-9.729,9.729,27.823,27.823a7.452,7.452,0,0,1,2.182,5.183,6.936,6.936,0,0,1-2.182,5.183,7.621,7.621,0,0,1-5.183,2.182,7.08,7.08,0,0,1-5.183-2.182L418.69,142.386l-9.638,9.638,27.823,27.823a7.452,7.452,0,0,1,2.182,5.183,7.08,7.08,0,0,1-2.182,5.183,7.621,7.621,0,0,1-5.183,2.182,7.08,7.08,0,0,1-5.183-2.182l-18.367-18.367a21.435,21.435,0,0,0-18.821-29.823,21.251,21.251,0,0,0-6.274-14.275,21.677,21.677,0,0,0-14.275-6.274A21.564,21.564,0,0,0,362.5,107.2a21.812,21.812,0,0,0-14.275-6.274,21.452,21.452,0,0,0-21.458-20.549,21.626,21.626,0,0,0-15.184,6.274l-24.913,24.913L260.756,85.65H228.3V14.457H322.4V.818H139.1V141.75h89.105Zm165.572,69.647L356.225,206.76a7.834,7.834,0,0,1-12.275-9.547,17.448,17.448,0,0,0,1.364-1.273l37.551-37.551a17.458,17.458,0,0,0,1.273-1.364,8.032,8.032,0,0,1,4-1.091,7.82,7.82,0,0,1,5.637,13.275ZM374.41,147.3a17.457,17.457,0,0,0-1.364,1.273L335.495,186.12a9.731,9.731,0,0,0-1.273,1.455,7.554,7.554,0,0,1-4,1.091,7.842,7.842,0,0,1-5.546-2.273h0a7.842,7.842,0,0,1-2.273-5.546,7.554,7.554,0,0,1,1.091-4,18.208,18.208,0,0,0,1.455-1.273L362.5,138.022c.455-.455.818-.909,1.273-1.364a8.113,8.113,0,0,1,4.092-1.091A7.63,7.63,0,0,1,374.41,147.3Zm-20.458-20.549a17.452,17.452,0,0,0-1.364,1.273l-37.551,37.551a17.451,17.451,0,0,0-1.273,1.364,7.823,7.823,0,0,1-10.729-10.729,17.452,17.452,0,0,0,1.364-1.273l37.551-37.551a17.457,17.457,0,0,0,1.273-1.364,8.032,8.032,0,0,1,4-1.091,7.77,7.77,0,0,1,5.546,2.273A7.854,7.854,0,0,1,353.952,126.747Zm-32.823-30.1a7.9,7.9,0,0,1,11.093,0,7.859,7.859,0,0,1,1.182,9.638,17.455,17.455,0,0,0-1.364,1.273l-37.551,37.46a17.463,17.463,0,0,0-1.273,1.364,7.729,7.729,0,0,1-9.547-1.182h0a7.9,7.9,0,0,1,0-11.093ZM214.566,128.2H152.739V14.548h61.828Z" transform="translate(889.124 -922.463)" />
    <rect id="Rectangle_322" data-name="Rectangle 322" width="13.639" height="13.457" transform="translate(1053.956 -822.993)" />
    <rect id="Rectangle_323" data-name="Rectangle 323" width="13.639" height="13.457" transform="translate(1454.746 -822.993)" />
    <path id="Path_896" data-name="Path 896" d="M48.1,609.013H0V645.2H39.824v8.91H14.548V690.3h17.73v9H.182v36.188H151.66V712.938h32.1V676.751h-17.73v-9H191.3V631.562H151.478v-9.274h48.1V586.1H48.1Zm96.2,90.378H114.564v-8.91H144.3ZM39.188,713.029H68.92v8.911H39.188Zm44.007-45.28v8.911H53.463v-8.911Zm17.821,22.731v8.91H71.284v-8.91ZM82.468,713.029H112.2v8.911H82.468Zm14.366-36.278V667.84h29.732v8.911Zm-18-22.64V645.2h29.732v8.911Zm3.455-22.549v-8.911h29.732v8.911Zm34.46-22.913H87.014v-8.91h29.732Zm13.639-8.911h29.732v8.911H130.384ZM13.639,622.651H25.277v8.911H13.639Zm25.277,8.911v-8.911H68.647v8.911H38.915ZM53.463,645.2H65.1v8.91H53.463ZM28.186,667.749H39.824v8.911H28.186Zm17.73,22.731H57.555v8.91H45.916Zm-32.1,22.549H25.459v8.911H13.82Zm124.2,8.911H125.838v-8.911h12.184Zm32.1-22.549H157.934v-8.91h12.184Zm-17.73-22.64H140.2V667.84h12.184Zm25.277-22.64H165.481V645.2h12.184ZM151.842,645.2v8.91H122.11V645.2h29.732Zm-26.186-13.639v-8.911H137.84v8.911Zm60.282-22.913H173.755v-8.91h12.184Zm-124.2-8.911H73.375v8.911H61.737Z" transform="translate(901.75 -975.661)" />
  </g>
</svg>
