<svg xmlns="http://www.w3.org/2000/svg" width="531.583" height="532.433" viewBox="0 0 531.583 532.433" fill="#35DECA">
  <g id="Group_769" data-name="Group 769" transform="translate(-2622.256 919.372)">
    <path id="Path_947" data-name="Path 947" d="M1242,336.735h35.094v89.046h10.634V326.1H1242Z" transform="translate(1557.852 -1014.349)" />
    <path id="Path_956" data-name="Path 956" d="M1057.4,425.781h10.634V336.735h89.259V326.1H1057.4Z" transform="translate(1611.577 -1014.349)" />
    <path id="Path_946" data-name="Path 946" d="M1025.4,516.759h221.977V478.9H1025.4Zm10.635-27.224h200.708v16.59H1098.565V499.6h-10.634v6.523h-9.287V499.6h-10.634v6.523h-9.288V499.6h-10.634v6.523h-12.052Z" transform="translate(1620.89 -1058.819)" />
    <path id="Path_948" data-name="Path 948" d="M1164.55,356.5H1085.5v77.49h138.532V356.5h-27.3v10.635H1213.4v56.221H1096.135V367.135h68.415Z" transform="translate(1603.399 -1023.197)" />
    <path id="Path_950" data-name="Path 950" d="M1202.738,371.485H1179.2v10.634h34.172V296.335h20.7V285.7h-31.336Z" transform="translate(1576.129 -1002.591)" />
    <rect id="Rectangle_400" data-name="Rectangle 400" width="9.571" height="10.634" transform="translate(2820.058 -716.891)" />
    <rect id="Rectangle_401" data-name="Rectangle 401" width="9.571" height="10.634" transform="translate(2839.908 -716.891)" />
    <rect id="Rectangle_417" data-name="Rectangle 417" width="10.493" height="10.634" transform="translate(2713.783 -630.539)" />
    <rect id="Rectangle_416" data-name="Rectangle 416" width="10.28" height="10.634" transform="translate(2733.635 -630.539)" />
    <rect id="Rectangle_402" data-name="Rectangle 402" width="9.571" height="10.634" transform="translate(2859.76 -716.891)" />
    <rect id="Rectangle_403" data-name="Rectangle 403" width="41.758" height="10.634" transform="translate(2884.928 -716.891)" />
    <rect id="Rectangle_404" data-name="Rectangle 404" width="49.982" height="10.634" transform="translate(2940.794 -716.891)" />
    <rect id="Rectangle_406" data-name="Rectangle 406" width="14.534" height="10.634" transform="translate(2884.928 -735.821)" />
    <rect id="Rectangle_407" data-name="Rectangle 407" width="79.617" height="10.634" transform="translate(2911.159 -735.821)" />
    <rect id="Rectangle_408" data-name="Rectangle 408" width="55.796" height="10.634" transform="translate(2884.928 -754.75)" />
    <rect id="Rectangle_409" data-name="Rectangle 409" width="35.945" height="10.634" transform="translate(2954.832 -754.75)" />
    <rect id="Rectangle_411" data-name="Rectangle 411" width="27.933" height="10.634" transform="translate(2884.928 -773.68)" />
    <rect id="Rectangle_412" data-name="Rectangle 412" width="63.807" height="10.634" transform="translate(2926.969 -773.68)" />
    <rect id="Rectangle_413" data-name="Rectangle 413" width="41.758" height="10.634" transform="translate(2884.928 -792.609)" />
    <rect id="Rectangle_414" data-name="Rectangle 414" width="49.982" height="10.634" transform="translate(2940.794 -792.609)" />
    <rect id="Rectangle_415" data-name="Rectangle 415" width="9.571" height="10.634" transform="translate(2859.76 -792.609)" />
    <path id="Path_949" data-name="Path 949" d="M1326.5,159.534h140.942V270.062H1327.705V280.7h150.372V148.9H1326.5Z" transform="translate(1533.259 -962.778)" />
    <path id="Path_952" data-name="Path 952" d="M1248.842,208.8,1235.3,228.651l13.967,18.079,8.366-6.452-9.216-11.981,9.216-13.47Z" transform="translate(1559.802 -980.211)" />
    <path id="Path_953" data-name="Path 953" d="M1319.316,228.3l9.217-13.47-8.72-6.026L1306.2,228.651l13.967,18.079,8.437-6.452Z" transform="translate(1539.167 -980.211)" />
    <path id="Path_954" data-name="Path 954" d="M1293.1,240.278l-9.216-11.981,9.216-13.47-8.791-6.026L1270.7,228.651l13.967,18.079Z" transform="translate(1549.499 -980.211)" />
    <path id="Path_937" data-name="Path 937" d="M1311.948,429.335h107.479V643.726H1287.135V507.463H1276.5v146.9h153.562V418.7H1311.948Z" transform="translate(1547.811 -1041.299)" />
    <rect id="Rectangle_379" data-name="Rectangle 379" width="10.634" height="234.597" transform="translate(2990.138 -621.961)" />
    <rect id="Rectangle_378" data-name="Rectangle 378" width="10.634" height="234.597" transform="translate(3011.549 -621.961)" />
    <path id="Path_942" data-name="Path 942" d="M1330.056,560.306l-4.041-4.112-7.515,7.515,11.556,11.627,23.821-23.75L1346.362,544Z" transform="translate(1535.588 -1077.766)" />
    <path id="Path_943" data-name="Path 943" d="M1346.362,600.7l-16.306,16.306-4.041-4.112-7.515,7.515,11.556,11.627,23.821-23.821Z" transform="translate(1535.588 -1094.267)" />
    <path id="Path_944" data-name="Path 944" d="M1326.015,669.594l-7.515,7.515,11.556,11.627,23.821-23.821-7.515-7.515-16.306,16.306Z" transform="translate(1535.588 -1110.769)" />
    <rect id="Rectangle_391" data-name="Rectangle 391" width="50.124" height="10.634" transform="translate(2885.708 -571.412)" />
    <rect id="Rectangle_392" data-name="Rectangle 392" width="12.194" height="10.634" transform="translate(2903.432 -532.135)" />
    <rect id="Rectangle_384" data-name="Rectangle 384" width="29.209" height="10.634" transform="translate(2925.693 -532.135)" />
    <rect id="Rectangle_385" data-name="Rectangle 385" width="51.471" height="10.634" transform="translate(2903.432 -513.702)" />
    <rect id="Rectangle_393" data-name="Rectangle 393" width="24.388" height="10.634" transform="translate(2903.432 -490.731)" />
    <rect id="Rectangle_386" data-name="Rectangle 386" width="17.015" height="10.634" transform="translate(2937.959 -490.731)" />
    <rect id="Rectangle_389" data-name="Rectangle 389" width="29.422" height="10.634" transform="translate(2903.432 -472.298)" />
    <rect id="Rectangle_394" data-name="Rectangle 394" width="19.355" height="10.634" transform="translate(2903.432 -449.328)" />
    <rect id="Rectangle_387" data-name="Rectangle 387" width="22.049" height="10.634" transform="translate(2932.854 -449.328)" />
    <rect id="Rectangle_388" data-name="Rectangle 388" width="51.471" height="10.634" transform="translate(2903.432 -430.895)" />
    <path id="Path_939" data-name="Path 939" d="M1568.179,445.227h-6.168v10.634h16.8V363.2H1540.6v29.564h10.634V373.834h16.944Z" transform="translate(1470.949 -1025.147)" />
    <path id="Path_940" data-name="Path 940" d="M1611.6,433.161h38.709V285.2H1611.6Zm10.635-137.327h17.441V422.6h-17.441Z" transform="translate(1450.286 -1002.446)" />
    <path id="Path_941" data-name="Path 941" d="M1725.01,224.2H1686.3V415.479h38.709Zm-10.635,180.574h-17.44V234.834h17.44Z" transform="translate(1428.546 -984.693)" />
    <path id="Path_936" data-name="Path 936" d="M1682.774,603.5a31.982,31.982,0,0,0-31.974,31.974c0,12.052,13.47,35.023,24.814,52.18a8.637,8.637,0,0,0,7.161,3.9,8.378,8.378,0,0,0,7.161-3.9c20.489-31.124,24.814-45.516,24.814-52.18A32.027,32.027,0,0,0,1682.774,603.5Zm0,75.718c-13.258-20.418-21.34-37.008-21.34-43.743a21.34,21.34,0,1,1,42.68,0C1704.114,642.21,1696.032,658.87,1682.774,679.218Z" transform="translate(1438.877 -1095.082)" />
    <path id="Path_935" data-name="Path 935" d="M1683.65,690.537l-7.16,7.8a7.349,7.349,0,0,1,2.765,5.175c0,5.175-8.579,10.989-20.915,10.989s-20.914-5.814-20.914-10.989c0-2.127,1.418-3.9,2.552-5.034l-7.373-7.657a17.79,17.79,0,0,0-5.743,10.989h-35.59a14.038,14.038,0,0,1,0-28.075h26.657V663.1h-26.657a24.672,24.672,0,0,0,0,49.344h38.213c4.892,7.586,15.81,12.691,28.855,12.691,17.724,0,31.549-9.5,31.549-21.623C1689.818,698.761,1687.691,694.294,1683.65,690.537Z" transform="translate(1463.382 -1112.428)" />
    <rect id="Rectangle_380" data-name="Rectangle 380" width="10.351" height="10.634" transform="translate(3116.476 -460.955)" />
    <rect id="Rectangle_395" data-name="Rectangle 395" width="10.209" height="10.634" transform="translate(2940.794 -597.714)" />
    <path id="Path_938" data-name="Path 938" d="M1691.186,577.828V531.816A22.632,22.632,0,0,0,1668.57,509.2h-40.978a18.433,18.433,0,1,0,0,36.866h12.832a5.743,5.743,0,0,1,0,11.485H1571.3v10.634h69.124a16.377,16.377,0,0,0,0-32.754h-12.832a7.8,7.8,0,0,1,0-15.6h40.978a12.012,12.012,0,0,1,11.982,11.982v46.012Z" transform="translate(1462.015 -1067.638)" />
    <rect id="Rectangle_390" data-name="Rectangle 390" width="11.131" height="10.634" transform="translate(3035.229 -543.833)" />
    <rect id="Rectangle_381" data-name="Rectangle 381" width="10.28" height="10.634" transform="translate(3033.314 -480.735)" />
    <rect id="Rectangle_382" data-name="Rectangle 382" width="10.28" height="10.634" transform="translate(3052.882 -480.735)" />
    <rect id="Rectangle_383" data-name="Rectangle 383" width="10.28" height="10.634" transform="translate(3072.52 -480.735)" />
    <rect id="Rectangle_423" data-name="Rectangle 423" width="10.28" height="10.634" transform="translate(2623.964 -510.015)" />
    <rect id="Rectangle_422" data-name="Rectangle 422" width="10.28" height="10.634" transform="translate(2643.532 -510.015)" />
    <rect id="Rectangle_419" data-name="Rectangle 419" width="10.28" height="10.634" transform="translate(2663.17 -510.015)" />
    <rect id="Rectangle_398" data-name="Rectangle 398" width="10.28" height="10.634" transform="translate(2860.965 -658.544)" />
    <rect id="Rectangle_396" data-name="Rectangle 396" width="10.28" height="10.634" transform="translate(2880.532 -658.544)" />
    <rect id="Rectangle_397" data-name="Rectangle 397" width="10.28" height="10.634" transform="translate(2900.17 -658.544)" />
    <path id="Path_945" data-name="Path 945" d="M1422.5,373.134h46.225l-5.459,7.94,8.791,5.955,13.612-19.851L1471.7,349.1l-8.437,6.522,5.317,6.877H1422.5Z" transform="translate(1505.321 -1021.043)" />
    <path id="Path_951" data-name="Path 951" d="M991.5,714.924h176.32V626.8H991.5Zm79.333-30.273a16.43,16.43,0,0,0,8.862,2.481,17.259,17.259,0,0,0,8.862-2.481l25.594-16.023,35.59,35.59H1009.72l35.59-35.59Zm52.464-21.765,33.888-21.2V696.7Zm-40.482,12.761a6.082,6.082,0,0,1-6.38,0l-61.113-38.213H1144Zm-46.863-12.761-33.889,33.889V641.759Z" transform="translate(1630.756 -1101.863)" />
    <rect id="Rectangle_399" data-name="Rectangle 399" width="128.104" height="10.634" transform="translate(2685.147 -510.086)" />
    <rect id="Rectangle_405" data-name="Rectangle 405" width="11.131" height="10.634" transform="translate(3025.09 -717.246)" />
    <rect id="Rectangle_410" data-name="Rectangle 410" width="11.131" height="10.634" transform="translate(3077.199 -760.493)" />
    <path id="Path_957" data-name="Path 957" d="M1541.3,84.963a62.178,62.178,0,0,0,62.105,62.105h17.582a62.105,62.105,0,1,0,0-124.211h-10.705V10.734h8.011V.1h-26.586V10.734h8.011V23A62.126,62.126,0,0,0,1541.3,84.963Zm10.634,0a51.471,51.471,0,1,1,51.471,51.471A51.558,51.558,0,0,1,1551.935,84.963Zm120.524,0a51.554,51.554,0,0,1-25.948,44.665,62,62,0,0,0,0-89.33A51.554,51.554,0,0,1,1672.459,84.963Z" transform="translate(1470.745 -919.472)" />
    <path id="Path_961" data-name="Path 961" d="M1577.135,106.995a33.3,33.3,0,0,1,9.784-23.679L1579.4,75.8a44.37,44.37,0,0,0-11.414,42.68l10.28-2.765A35.42,35.42,0,0,1,1577.135,106.995Z" transform="translate(1463.411 -941.503)" />
    <path id="Path_959" data-name="Path 959" d="M1574.7,148.517a46.162,46.162,0,0,0,7.16,9.358l7.515-7.515a33.578,33.578,0,0,1-5.459-7.161Z" transform="translate(1461.025 -961.119)" />
    <path id="Path_963" data-name="Path 963" d="M1634.323,106.957h30.2v-5.317A44.205,44.205,0,0,0,1599.3,62.717l5.034,9.358a33.58,33.58,0,0,1,49.131,24.247h-19.142Z" transform="translate(1453.865 -936.148)" />
    <rect id="Rectangle_418" data-name="Rectangle 418" width="10.634" height="10.634" transform="translate(3067.345 -839.755)" />
    <path id="Path_966" data-name="Path 966" d="M1431.234,50.64a14.554,14.554,0,0,0,14.534-14.534V15.334a14.534,14.534,0,0,0-29.068,0v20.7A14.524,14.524,0,0,0,1431.234,50.64Zm-3.97-35.306a3.888,3.888,0,0,1,3.9-3.9,3.934,3.934,0,0,1,3.9,3.9v20.7a3.888,3.888,0,0,1-3.9,3.9,3.934,3.934,0,0,1-3.9-3.9Z" transform="translate(1507.009 -919.676)" />
    <rect id="Rectangle_420" data-name="Rectangle 420" width="26.941" height="10.634" transform="translate(2827.573 -854.431)" />
    <path id="Path_962" data-name="Path 962" d="M1332.6,78.634v20.7a14.534,14.534,0,0,0,29.068,0v-20.7a14.534,14.534,0,0,0-29.068,0Zm18.5,0v20.7a3.888,3.888,0,0,1-3.9,3.9,3.934,3.934,0,0,1-3.9-3.9v-20.7a3.9,3.9,0,1,1,7.8,0Z" transform="translate(1531.484 -938.098)" />
    <rect id="Rectangle_421" data-name="Rectangle 421" width="94.009" height="10.634" transform="translate(2904.637 -854.431)" />
    <path id="Path_964" data-name="Path 964" d="M1046.064,299.835V289.2a25.658,25.658,0,0,0-25.664,25.665h10.634A15.038,15.038,0,0,1,1046.064,299.835Z" transform="translate(1622.345 -1003.61)" />
    <path id="Path_965" data-name="Path 965" d="M1038.44,273.634V263a44.3,44.3,0,0,0-44.24,44.239h10.635A33.631,33.631,0,0,1,1038.44,273.634Z" transform="translate(1629.97 -995.985)" />
    <path id="Path_960" data-name="Path 960" d="M1122.247,143.495a20.347,20.347,0,1,0-20.347-20.347A20.393,20.393,0,0,0,1122.247,143.495Zm0-30.131a9.713,9.713,0,1,1-9.713,9.713A9.728,9.728,0,0,1,1122.247,113.364Z" transform="translate(1598.626 -949.361)" />
    <path id="Path_958" data-name="Path 958" d="M1104.856,150.663v9.855h10.635v-9.855a39.935,39.935,0,0,0,34.243-34.172h9.713V105.856h-9.713a39.935,39.935,0,0,0-34.243-34.172V61.9h-10.635v9.855a39.858,39.858,0,0,0-34.03,34.1H1060.9V116.49h9.925A39.933,39.933,0,0,0,1104.856,150.663Zm5.459-68.628a29.209,29.209,0,1,1-29.21,29.209A29.259,29.259,0,0,1,1110.315,82.035Z" transform="translate(1610.558 -937.458)" />
    <path id="Path_955" data-name="Path 955" d="M1014.685,109.948h10.351a4.688,4.688,0,0,1,4.466,3.19,66.794,66.794,0,0,0,5.53,12.62,4.723,4.723,0,0,1-.78,5.672l-6.806,6.806a15.34,15.34,0,1,0,21.695,21.694l7.373-7.373a4.545,4.545,0,0,1,5.459-.851,64.325,64.325,0,0,0,12.832,5.034,4.639,4.639,0,0,1,3.4,4.537v9.642a15.385,15.385,0,1,0,30.769,0V160.568a4.688,4.688,0,0,1,3.19-4.466,68.84,68.84,0,0,0,12.62-5.53,4.723,4.723,0,0,1,5.672.78l6.806,6.806a15.365,15.365,0,1,0,21.695-21.765l-7.373-7.373a4.545,4.545,0,0,1-.851-5.459,64.319,64.319,0,0,0,5.034-12.832,4.639,4.639,0,0,1,4.537-3.4h9.571a15.385,15.385,0,0,0,0-30.769h-10.351a4.688,4.688,0,0,1-4.466-3.19,66.793,66.793,0,0,0-5.53-12.62,4.723,4.723,0,0,1,.78-5.672l6.806-6.806A15.39,15.39,0,0,0,1135.351,26.5l-7.232,7.373a4.544,4.544,0,0,1-5.459.851,64.332,64.332,0,0,0-12.832-5.034,4.639,4.639,0,0,1-3.4-4.537V15.585a15.385,15.385,0,0,0-30.769,0V25.935a4.688,4.688,0,0,1-3.19,4.466,66.8,66.8,0,0,0-12.62,5.53,4.723,4.723,0,0,1-5.672-.78l-6.806-6.806A15.39,15.39,0,0,0,1025.6,50.111l7.373,7.373a4.545,4.545,0,0,1,.851,5.459,64.318,64.318,0,0,0-5.033,12.832,4.639,4.639,0,0,1-4.537,3.4h-9.571a15.385,15.385,0,0,0,0,30.769Zm0-20.064h9.571a15.4,15.4,0,0,0,14.817-11.273,53.239,53.239,0,0,1,4.183-10.705,15.193,15.193,0,0,0-2.836-17.866l-7.373-7.373a4.762,4.762,0,1,1,6.735-6.735l6.806,6.806a15.357,15.357,0,0,0,18.433,2.481,51.85,51.85,0,0,1,10.563-4.608,15.169,15.169,0,0,0,10.635-14.6V15.585a4.75,4.75,0,1,1,9.5,0v9.571a15.4,15.4,0,0,0,11.273,14.817,53.236,53.236,0,0,1,10.705,4.183,15.194,15.194,0,0,0,17.866-2.836l7.373-7.373a4.762,4.762,0,0,1,6.735,6.735l-6.806,6.806a15.357,15.357,0,0,0-2.482,18.433,51.842,51.842,0,0,1,4.608,10.564,15.169,15.169,0,0,0,14.6,10.634h10.351a4.75,4.75,0,0,1,0,9.5h-9.571a15.4,15.4,0,0,0-14.818,11.273,53.239,53.239,0,0,1-4.183,10.705,15.194,15.194,0,0,0,2.836,17.866l7.373,7.373a4.792,4.792,0,0,1,0,6.735,4.614,4.614,0,0,1-3.332,1.418,4.5,4.5,0,0,1-3.332-1.418l-6.806-6.806a15.357,15.357,0,0,0-18.433-2.481,51.846,51.846,0,0,1-10.563,4.608,15.169,15.169,0,0,0-10.635,14.6v10.422a4.75,4.75,0,1,1-9.5,0v-9.571a15.4,15.4,0,0,0-11.273-14.817,53.234,53.234,0,0,1-10.706-4.183,15.268,15.268,0,0,0-17.866,2.836l-7.373,7.373a4.614,4.614,0,0,1-3.332,1.418,4.5,4.5,0,0,1-3.332-1.418,4.614,4.614,0,0,1-1.418-3.332,4.5,4.5,0,0,1,1.418-3.332l6.806-6.806a15.357,15.357,0,0,0,2.481-18.433,51.848,51.848,0,0,1-4.608-10.564,15.169,15.169,0,0,0-14.6-10.634h-10.493a4.75,4.75,0,0,1-4.75-4.75A4.859,4.859,0,0,1,1014.685,89.884Z" transform="translate(1628.486 -919.501)" />
  </g>
</svg>
